<?xml version="1.0" encoding="iso-8859-1"?>
<!-- Generator: Adobe Illustrator 19.0.0, SVG Export Plug-In . SVG Version: 6.00 Build 0)  -->
<svg version="1.1" id="Capa_1" xmlns="http://www.w3.org/2000/svg" xmlns:xlink="http://www.w3.org/1999/xlink" x="0px" y="0px"
	 viewBox="0 0 512 512" style="enable-background:new 0 0 512 512;" xml:space="preserve">
<path style="fill:#0E61C4;" d="M512,443h-30c0-55.002-10.751-108.331-31.953-158.502c-20.483-48.471-49.816-91.994-87.184-129.361
	s-80.89-66.7-129.361-87.183C183.331,46.75,130.002,36,75,36V6c59.036,0,116.293,11.547,170.181,34.319
	c52.05,21.996,98.781,53.489,138.896,93.604c40.114,40.115,71.607,86.846,93.604,138.896C500.453,326.707,512,383.964,512,443z"/>
<path style="fill:#DE8144;" d="M90,456H0V6h90V456z"/>
<circle style="fill:#FDE882;" cx="45" cy="486" r="20"/>
<path style="fill:#D4702C;" d="M90,456H45V6h45V456z"/>
<g>
</g>
<g>
</g>
<g>
</g>
<g>
</g>
<g>
</g>
<g>
</g>
<g>
</g>
<g>
</g>
<g>
</g>
<g>
</g>
<g>
</g>
<g>
</g>
<g>
</g>
<g>
</g>
<g>
</g>
</svg>
