<?xml version="1.0" encoding="iso-8859-1"?>
<!-- Generator: Adobe Illustrator 19.0.0, SVG Export Plug-In . SVG Version: 6.00 Build 0)  -->
<svg version="1.1" id="Capa_1" xmlns="http://www.w3.org/2000/svg" xmlns:xlink="http://www.w3.org/1999/xlink" x="0px" y="0px"
	 viewBox="0 0 512 512" style="enable-background:new 0 0 512 512;" xml:space="preserve">
<g>
	<g>
		<path d="M477.681,272.819c-21.996-52.05-53.489-98.781-93.604-138.896S297.23,62.315,245.181,40.319
			C195.869,19.481,143.736,8.049,90,6.256V6H0v450h45h45V36.27c49.699,1.779,97.905,12.414,143.502,31.683
			c48.471,20.483,91.994,49.816,129.361,87.183c37.367,37.367,66.7,80.891,87.184,129.361C471.249,334.669,482,387.998,482,443h30
			C512,383.964,500.453,326.707,477.681,272.819z"/>
	</g>
</g>
<g>
	<g>
		<circle cx="45" cy="486" r="20"/>
	</g>
</g>
<g>
</g>
<g>
</g>
<g>
</g>
<g>
</g>
<g>
</g>
<g>
</g>
<g>
</g>
<g>
</g>
<g>
</g>
<g>
</g>
<g>
</g>
<g>
</g>
<g>
</g>
<g>
</g>
<g>
</g>
</svg>
