<svg height="512pt" viewBox="0 0 512 512" width="512pt" xmlns="http://www.w3.org/2000/svg"><path d="m512 17.65625v441.378906c-.023438 9.742188-7.914062 17.632813-17.65625 17.65625h-114.757812l-26.484376 17.652344c0-4.855469-48.109374 8.828125-52.964843 8.828125l-114.757813-8.828125c-4.855468 0-35.308594-4.855469-35.308594 0l-17.65625-17.652344h-114.757812c-9.742188-.023437-17.6328125-7.914062-17.65625-17.65625v-441.378906c.0234375-9.742188 7.914062-17.6328125 17.65625-17.65625h476.6875c9.742188.0234375 17.632812 7.914062 17.65625 17.65625zm0 0" fill="#7f8c8d"/><path d="m507.585938 6.003906-119.171876 161.71875-7.0625.179688c-.582031-.109375-1.171874-.167969-1.765624-.179688h-247.171876c-2.34375 0-4.59375.921875-6.269531 2.5625l-2.558593-2.5625-119.171876-161.71875c3.34375-3.8125 8.167969-5.99999975 13.242188-6.003906h476.6875c5.074219.00390625 9.898438 2.191406 13.242188 6.003906zm0 0" fill="#bdc3c7"/><path d="m507.585938 470.6875c-3.34375 3.8125-8.167969 5.996094-13.242188 6.003906h-114.757812v-8.828125c-.015626-4.871093-3.957032-8.816406-8.828126-8.828125h-229.515624c-4.871094.011719-8.8125 3.957032-8.828126 8.828125v8.828125h-114.757812c-5.074219-.007812-9.898438-2.191406-13.242188-6.003906l119.171876-161.722656 2.558593-2.558594c1.675781 1.640625 3.925781 2.558594 6.269531 2.558594h256zm0 0" fill="#5e5f62"/><path d="m141.242188 459.035156h229.515624c4.875 0 8.828126 3.953125 8.828126 8.828125v35.308594c0 4.875-3.953126 8.828125-8.828126 8.828125h-229.515624c-4.875 0-8.828126-3.953125-8.828126-8.828125v-35.308594c0-4.875 3.953126-8.828125 8.828126-8.828125zm0 0" fill="#7f8c8d"/><path d="m388.414062 176.550781v123.585938c-.015624 4.871093-3.957031 8.816406-8.828124 8.828125h-247.171876c-2.347656.023437-4.609374-.898438-6.269531-2.558594-1.660156-1.660156-2.582031-3.917969-2.558593-6.269531v-123.585938c-.023438-2.347656.898437-4.605469 2.558593-6.265625 1.660157-1.664062 3.921875-2.585937 6.269531-2.5625h247.171876c.59375.011719 1.183593.070313 1.765624.179688 4.113282.832031 7.070313 4.453125 7.0625 8.648437zm0 0" fill="#e6e7e8"/><g fill="#2c2f38"><path d="m79.449219 291.308594c-4.875 0-8.828125-3.949219-8.828125-8.824219v-88.277344c0-4.875 3.953125-8.828125 8.828125-8.828125s8.828125 3.953125 8.828125 8.828125v88.277344c0 4.875-3.953125 8.824219-8.828125 8.824219zm0 0"/><path d="m44.136719 291.308594c-4.875 0-8.828125-3.949219-8.828125-8.824219v-88.277344c0-4.875 3.953125-8.828125 8.828125-8.828125s8.828125 3.953125 8.828125 8.828125v88.277344c0 4.875-3.953125 8.824219-8.828125 8.824219zm0 0"/><path d="m467.863281 291.308594c-4.875 0-8.828125-3.949219-8.828125-8.824219v-88.277344c0-4.875 3.953125-8.828125 8.828125-8.828125s8.828125 3.953125 8.828125 8.828125v88.277344c0 4.875-3.953125 8.824219-8.828125 8.824219zm0 0"/><path d="m432.550781 291.308594c-4.875 0-8.828125-3.949219-8.828125-8.824219v-88.277344c0-4.875 3.953125-8.828125 8.828125-8.828125s8.828125 3.953125 8.828125 8.828125v88.277344c0 4.875-3.953125 8.824219-8.828125 8.824219zm0 0"/><path d="m176.550781 494.34375v17.65625h-17.652343v-17.65625c0-4.875 3.949218-8.828125 8.824218-8.828125s8.828125 3.953125 8.828125 8.828125zm0 0"/><path d="m211.863281 494.34375v17.65625h-17.65625v-17.65625c0-4.875 3.953125-8.828125 8.828125-8.828125s8.828125 3.953125 8.828125 8.828125zm0 0"/><path d="m247.171875 494.34375v17.65625h-17.65625v-17.65625c0-4.875 3.953125-8.828125 8.828125-8.828125s8.828125 3.953125 8.828125 8.828125zm0 0"/><path d="m282.484375 494.34375v17.65625h-17.65625v-17.65625c0-4.875 3.953125-8.828125 8.828125-8.828125s8.828125 3.953125 8.828125 8.828125zm0 0"/><path d="m317.792969 494.34375v17.65625h-17.65625v-17.65625c0-4.875 3.953125-8.828125 8.828125-8.828125s8.828125 3.953125 8.828125 8.828125zm0 0"/><path d="m353.101562 494.34375v17.65625h-17.652343v-17.65625c0-4.875 3.953125-8.828125 8.828125-8.828125s8.824218 3.953125 8.824218 8.828125zm0 0"/></g></svg>