<?xml version="1.0" encoding="iso-8859-1"?>
<!-- Generator: Adobe Illustrator 19.0.0, SVG Export Plug-In . SVG Version: 6.00 Build 0)  -->
<svg version="1.1" id="Capa_1" xmlns="http://www.w3.org/2000/svg" xmlns:xlink="http://www.w3.org/1999/xlink" x="0px" y="0px"
	 viewBox="0 0 512 512" style="enable-background:new 0 0 512 512;" xml:space="preserve">
<path style="fill:#FDA916;" d="M256,471c-57.429,0-111.42-22.364-152.028-62.972S41,313.429,41,256s22.364-111.42,62.972-152.028
	S198.571,41,256,41s111.42,22.364,152.028,62.972C448.636,144.58,471,198.571,471,256s-22.364,111.42-62.972,152.028
	C367.42,448.636,313.429,471,256,471z"/>
<path style="fill:#FD9200;" d="M408.028,103.972C367.42,63.364,313.429,41,256,41v430c57.429,0,111.42-22.364,152.028-62.972
	C448.636,367.42,471,313.429,471,256S448.636,144.58,408.028,103.972z"/>
<path style="fill:#DE8144;" d="M256,71C153.991,71,71,153.991,71,256s82.991,185,185,185s185-82.991,185-185S358.009,71,256,71z"/>
<path style="fill:#D4702C;" d="M256,71v370c102.009,0,185-82.991,185-185S358.009,71,256,71z"/>
<path style="fill:#A4F160;" d="M464.364,212.169l-124.503,10.376c-0.293-0.734-0.583-1.47-0.895-2.195l95.363-80.692
	c19.643-16.621,20.885-46.482,2.69-64.677l0,0c-18.195-18.195-48.055-16.953-64.677,2.69l-80.692,95.363
	c-0.725-0.312-1.461-0.601-2.195-0.895L299.83,47.636C301.968,21.993,281.732,0,256,0l0,0c-25.732,0-45.968,21.993-43.831,47.636
	l10.375,124.503c-0.734,0.293-1.47,0.583-2.195,0.895l-80.692-95.363c-16.621-19.643-46.482-20.885-64.677-2.69l0,0
	c-18.195,18.195-16.953,48.055,2.69,64.677l95.363,80.692c-0.312,0.725-0.601,1.461-0.895,2.195L47.636,212.169
	C21.993,210.032,0,230.268,0,256s21.993,45.968,47.636,43.831l124.503-10.375c0.293,0.734,0.583,1.47,0.895,2.195l-95.363,80.691
	c-19.643,16.621-20.885,46.482-2.69,64.677l0,0c18.195,18.196,48.055,16.953,64.677-2.69l80.692-95.363
	c0.725,0.312,1.461,0.602,2.195,0.895L212.17,464.364C210.032,490.007,230.268,512,256,512l0,0
	c25.732,0,45.968-21.993,43.831-47.636l-10.375-124.503c0.734-0.293,1.47-0.583,2.195-0.895l80.692,95.363
	c16.621,19.643,46.482,20.885,64.677,2.69l0,0c18.195-18.195,16.953-48.056-2.69-64.677l-95.363-80.691
	c0.312-0.725,0.601-1.461,0.895-2.195l124.503,10.375C490.007,301.968,512,281.732,512,256S490.007,210.032,464.364,212.169z"/>
<path style="fill:#89DA53;" d="M464.364,212.168l-124.503,10.375c-0.293-0.734-0.583-1.47-0.895-2.195l95.363-80.692
	c19.643-16.621,20.885-46.482,2.69-64.677l0,0c-18.195-18.195-48.055-16.953-64.677,2.69l-80.692,95.363
	c-0.725-0.312-1.461-0.601-2.195-0.895L299.83,47.634C301.968,21.993,281.732,0,256,0l0,0v512l0,0
	c25.732,0,45.968-21.993,43.831-47.636l-10.375-124.503c0.734-0.293,1.47-0.583,2.195-0.895l80.692,95.363
	c16.621,19.644,46.482,20.886,64.677,2.69l0,0c18.195-18.195,16.953-48.055-2.69-64.677l-95.363-80.691
	c0.312-0.725,0.601-1.46,0.895-2.195l124.503,10.375C490.007,301.968,512,281.732,512,256S490.007,210.032,464.364,212.168z"/>
<g>
</g>
<g>
</g>
<g>
</g>
<g>
</g>
<g>
</g>
<g>
</g>
<g>
</g>
<g>
</g>
<g>
</g>
<g>
</g>
<g>
</g>
<g>
</g>
<g>
</g>
<g>
</g>
<g>
</g>
</svg>
