<svg height="512pt" viewBox="0 0 512 512" width="512pt" xmlns="http://www.w3.org/2000/svg"><path d="m70.621094 0h370.757812c39.003906 0 70.621094 31.617188 70.621094 70.621094v406.070312c0 19.5-15.808594 35.308594-35.308594 35.308594h-441.382812c-19.5 0-35.308594-15.808594-35.308594-35.308594v-406.070312c0-39.003906 31.617188-70.621094 70.621094-70.621094zm0 0" fill="#7f8c8d"/><path d="m291.308594 127.117188c88.804687 18.128906 149.457031 100.554687 140.347656 190.730468-9.109375 90.175782-85.019531 158.804688-175.65625 158.804688s-166.546875-68.628906-175.65625-158.804688c-9.109375-90.175781 51.542969-172.601562 140.347656-190.730468" fill="#5e5f62"/><path d="m291.308594 88.277344v123.585937c-.027344 9.738281-7.914063 17.625-17.652344 17.652344h-35.3125c-9.738281-.027344-17.625-7.914063-17.652344-17.652344v-123.585937" fill="#bdc3c7"/><path d="m220.691406 35.308594h70.617188c9.753906 0 17.65625 7.90625 17.65625 17.65625v17.65625c0 9.75-7.902344 17.65625-17.65625 17.65625h-70.617188c-9.753906 0-17.65625-7.90625-17.65625-17.65625v-17.65625c0-9.75 7.902344-17.65625 17.65625-17.65625zm0 0" fill="#d1d4d1"/><path d="m291.308594 308.964844c0 19.503906-15.808594 35.3125-35.308594 35.3125s-35.308594-15.808594-35.308594-35.3125c0-19.5 15.808594-35.308594 35.308594-35.308594s35.308594 15.808594 35.308594 35.308594zm0 0" fill="#2c2f38"/><g fill="#95a5a5"><path d="m35.308594 79.449219c-4.875 0-8.824219-3.953125-8.824219-8.828125v-8.828125c0-4.875 3.949219-8.828125 8.824219-8.828125 4.878906 0 8.828125 3.953125 8.828125 8.828125v8.828125c0 4.875-3.949219 8.828125-8.828125 8.828125zm0 0"/><path d="m35.308594 476.691406c-4.875 0-8.824219-3.953125-8.824219-8.828125v-361.933593c0-4.875 3.949219-8.828126 8.824219-8.828126 4.878906 0 8.828125 3.953126 8.828125 8.828126v361.933593c0 4.875-3.949219 8.828125-8.828125 8.828125zm0 0"/></g></svg>