<svg height="512pt" viewBox="-97 0 512 512" width="512pt" xmlns="http://www.w3.org/2000/svg"><path d="m88.40625 380.644531h141.242188v96.046875h-141.242188zm0 0" fill="#802d40"/><path d="m88.40625 34.25h141.242188v98.164062h-141.242188zm0 0" fill="#802d40"/><path d="m88.40625 0h141.242188c14.625 0 26.484374 11.855469 26.484374 26.484375 0 14.625-11.859374 26.480469-26.484374 26.480469h-141.242188c-14.625 0-26.480469-11.855469-26.480469-26.480469 0-14.628906 11.855469-26.484375 26.480469-26.484375zm0 0" fill="#d75e72"/><path d="m88.40625 459.035156h141.242188c14.625 0 26.484374 11.855469 26.484374 26.480469 0 14.628906-11.859374 26.484375-26.484374 26.484375h-141.242188c-14.625 0-26.480469-11.855469-26.480469-26.484375 0-14.625 11.855469-26.480469 26.480469-26.480469zm0 0" fill="#d75e72"/><path d="m317.925781 256c.027344 83.453125-64.480469 152.71875-147.726562 158.613281-83.242188 5.898438-156.871094-53.585937-168.605469-136.207031-11.730469-82.625 42.429688-160.253906 124.023438-177.765625 81.59375-17.507813 162.835937 31.058594 186.039062 111.222656 4.160156 14.34375 6.273438 29.203125 6.269531 44.136719zm0 0" fill="#cb8252"/><path d="m317.925781 256c.003907 14.933594-2.109375 29.792969-6.269531 44.136719h-305.257812c-8.355469-28.832031-8.355469-59.441407 0-88.273438h305.257812c4.160156 14.34375 6.273438 29.203125 6.269531 44.136719zm0 0" fill="#cc4b4c"/></svg>