<svg height="512pt" viewBox="0 0 512 512" width="512pt" xmlns="http://www.w3.org/2000/svg"><g fill="#802d40"><path d="m88.300781 194.199219h-61.800781v132.402343h61.800781"/><path d="m194.199219 414.898438v79.402343h132.402343v-79.402343"/><path d="m317.800781 97.101562v-79.402343h-132.402343v79.402343"/></g><path d="m17.699219 172.101562c9.800781 0 17.699219 7.898438 17.699219 17.699219v141.199219c0 9.800781-7.898438 17.699219-17.699219 17.699219s-17.699219-7.898438-17.699219-17.699219v-141.199219c0-9.800781 7.898438-17.699219 17.699219-17.699219zm0 0" fill="#d75e72"/><path d="m172.101562 494.300781c0-9.800781 7.898438-17.699219 17.699219-17.699219h141.199219c9.800781 0 17.699219 7.898438 17.699219 17.699219s-7.898438 17.699219-17.699219 17.699219h-141.199219c-9.800781 0-17.699219-7.898438-17.699219-17.699219zm0 0" fill="#d75e72"/><path d="m423.699219 326.601562h61.800781v-132.402343h-61.800781" fill="#802d40"/><path d="m494.300781 348.699219c-9.800781 0-17.699219-7.898438-17.699219-17.699219v-141.199219c0-9.800781 7.898438-17.699219 17.699219-17.699219s17.699219 7.898438 17.699219 17.699219v141.199219c0 9.800781-7.898438 17.699219-17.699219 17.699219zm0 0" fill="#d75e72"/><path d="m339.898438 17.699219c0 9.800781-7.898438 17.699219-17.699219 17.699219h-141.199219c-9.800781 0-17.699219-7.898438-17.699219-17.699219s7.898438-17.699219 17.699219-17.699219h141.199219c9.800781 0 17.699219 7.898438 17.699219 17.699219zm0 0" fill="#d75e72"/><path d="m97.101562 79.398438h317.796876c9.800781 0 17.703124 7.902343 17.703124 17.703124v317.796876c0 9.800781-7.902343 17.703124-17.703124 17.703124h-317.796876c-9.800781 0-17.703124-7.902343-17.703124-17.703124v-317.796876c0-9.703124 8-17.703124 17.703124-17.703124zm0 0" fill="#cb8252"/><path d="m114.800781 132.398438c-4.902343 0-8.800781-4-8.800781-8.796876v-8.800781c0-4.902343 4-8.800781 8.800781-8.800781s8.800781 4 8.800781 8.800781v8.800781c0 4.898438-4 8.796876-8.800781 8.796876zm0 0" fill="#804537"/><path d="m114.800781 282.5c-4.902343 0-8.800781-4-8.800781-8.800781v-114.800781c0-4.898438 4-8.796876 8.800781-8.796876s8.800781 4 8.800781 8.796876v114.800781c0 4.800781-4 8.800781-8.800781 8.800781zm0 0" fill="#804537"/></svg>