<svg height="512pt" viewBox="0 0 512 512.00015" width="512pt" xmlns="http://www.w3.org/2000/svg"><path d="m25.601562 349.867188c10.8125-.035157 20.433594-6.867188 24.027344-17.066407h27.171875v76.800781c.015625 14.128907 11.46875 25.582032 25.597657 25.597657h85.335937v25.601562c-14.140625 0-25.601563 11.460938-25.601563 25.597657 0 14.140624 11.460938 25.601562 25.601563 25.601562h136.53125c12.457031.03125 23.117187-8.933594 25.230469-21.210938 2.109375-12.273437-4.945313-24.285156-16.695313-28.417968v-27.171875h76.800781c14.128907-.015625 25.582032-11.46875 25.597657-25.597657v-85.335937h25.601562c0 14.140625 11.460938 25.601563 25.597657 25.601563 14.140624 0 25.601562-11.460938 25.601562-25.601563v-136.53125c.03125-12.457031-8.933594-23.117187-21.210938-25.230469-12.273437-2.109375-24.285156 4.945313-28.417968 16.695313h-27.171875v-76.800781c-.015625-14.128907-11.46875-25.582032-25.597657-25.597657h-85.335937v-25.601562c14.140625 0 25.601563-11.460938 25.601563-25.597657 0-14.140624-11.460938-25.601562-25.601563-25.601562h-136.53125c-12.457031-.03125-23.117187 8.933594-25.230469 21.210938-2.109375 12.273437 4.945313 24.285156 16.695313 28.417968v27.171875h-76.800781c-14.128907.015625-25.582032 11.46875-25.597657 25.597657v85.335937h-25.601562c0-14.140625-11.460938-25.601563-25.597657-25.601563-14.140624 0-25.601562 11.460938-25.601562 25.601563v136.53125c.015625 14.132813 11.46875 25.585937 25.601562 25.601563zm298.664063 145.066406h-136.53125c-4.714844 0-8.535156-3.820313-8.535156-8.535156 0-4.710938 3.820312-8.53125 8.535156-8.53125h136.53125c4.714844 0 8.535156 3.820312 8.535156 8.53125 0 4.714843-3.820312 8.535156-8.535156 8.535156zm-8.53125-34.132813h-110.933594v-25.601562h110.933594zm170.664063-281.601562c4.710937.003906 8.53125 3.824219 8.535156 8.535156v136.53125c0 4.714844-3.820313 8.535156-8.535156 8.535156-4.710938 0-8.53125-3.820312-8.53125-8.535156v-136.53125c.003906-4.710937 3.820312-8.53125 8.53125-8.535156zm-25.597657 17.066406v110.933594h-25.601562v-110.933594zm-273.066406-179.199219h136.53125c4.714844 0 8.535156 3.820313 8.535156 8.535156 0 4.710938-3.820312 8.53125-8.535156 8.53125h-136.53125c-4.714844 0-8.535156-3.820312-8.535156-8.53125 0-4.714843 3.820312-8.535156 8.535156-8.535156zm8.53125 34.132813h110.933594v25.601562h-110.933594zm-102.398437 51.199219c.003906-4.710938 3.820312-8.527344 8.53125-8.53125h307.203124c4.710938.003906 8.527344 3.820312 8.53125 8.53125v307.203124c-.003906 4.710938-3.820312 8.527344-8.53125 8.53125h-307.203124c-4.710938-.003906-8.527344-3.820312-8.53125-8.53125zm-17.066407 102.402343v110.933594h-25.601562v-110.933594zm-59.734375-17.066406c0-4.714844 3.820313-8.535156 8.535156-8.535156 4.710938 0 8.53125 3.820312 8.53125 8.535156v136.53125c0 4.714844-3.820312 8.535156-8.53125 8.535156-4.714843 0-8.535156-3.820312-8.535156-8.535156zm0 0"/><path d="m119.464844 136.535156c4.714844 0 8.535156-3.820312 8.535156-8.535156v-8.535156c0-4.710938-3.820312-8.53125-8.535156-8.53125-4.710938 0-8.53125 3.820312-8.53125 8.53125v8.535156c0 4.714844 3.820312 8.535156 8.53125 8.535156zm0 0"/><path d="m119.464844 281.601562c4.714844 0 8.535156-3.820312 8.535156-8.535156v-110.933594c0-4.710937-3.820312-8.53125-8.535156-8.53125-4.710938 0-8.53125 3.820313-8.53125 8.53125v110.933594c0 4.714844 3.820312 8.535156 8.53125 8.535156zm0 0"/></svg>