<svg height="512pt" viewBox="0 -75 512.00005 512" width="512pt" xmlns="http://www.w3.org/2000/svg"><path d="m406.070312 300.136719c0 8.121093-15.890624 24.628906-12.625 31.425781-6.847656 4.859375-14.542968 8.390625-22.6875 10.417969-5.757812 1.527343-11.695312 2.300781-17.65625 2.296875h-194.203124c-5.960938.003906-11.898438-.769532-17.65625-2.296875-8.144532-2.027344-15.839844-5.558594-22.6875-10.417969 3.265624-6.796875-12.625-23.304688-12.625-31.425781v-185.378907h300.140624zm0 0" fill="#d25627"/><path d="m370.757812 141.242188v200.738281c-5.757812 1.527343-11.695312 2.300781-17.65625 2.296875h-194.203124c-5.960938.003906-11.898438-.769532-17.65625-2.296875v-200.738281zm0 0" fill="#e57e25"/><path d="m512 88.277344v247.171875c.007812 7.027343-2.777344 13.765625-7.746094 18.734375s-11.710937 7.757812-18.738281 7.746094h-44.136719c-20.5-.023438-39.152344-11.84375-47.933594-30.367188-3.351562-7.058594-5.074218-14.78125-5.03125-22.597656v-185.378906h-264.828124v185.378906c.042968 7.816406-1.679688 15.539062-5.03125 22.597656-8.78125 18.523438-27.433594 30.34375-47.933594 30.367188h-44.136719c-7.027344.011718-13.769531-2.777344-18.738281-7.746094s-7.7539065-11.707032-7.746094-18.734375v-247.171875c-.0078125-7.027344 2.777344-13.769532 7.746094-18.738282s11.710937-7.753906 18.738281-7.746093h459.03125c7.027344-.007813 13.769531 2.777343 18.738281 7.746093s7.753906 11.710938 7.746094 18.738282zm0 0" fill="#f29c1f"/><path d="m459.035156 35.308594v61.792968c.007813 7.027344-2.777344 13.769532-7.746094 18.738282s-11.710937 7.753906-18.738281 7.746094h-353.101562c-7.027344.007812-13.769531-2.777344-18.738281-7.746094s-7.753907-11.710938-7.746094-18.738282v-61.792968c0-9.363282 3.71875-18.347656 10.339844-24.96875 6.621093-6.621094 15.605468-10.34375025 24.972656-10.339844h335.445312c9.367188-.00390625 18.351563 3.71875 24.972656 10.339844 6.621094 6.621094 10.339844 15.605468 10.339844 24.96875zm0 0" fill="#f18d46"/><path d="m441.378906 35.308594v61.792968c.625 13.988282-10.195312 25.839844-24.179687 26.484376h-322.398438c-13.984375-.644532-24.804687-12.496094-24.179687-26.484376v-61.792968c-.8125-18.640625 13.601562-34.425782 32.238281-35.308594h306.28125c18.636719.882812 33.050781 16.667969 32.238281 35.308594zm0 0" fill="#fac176"/><g fill="#fdd7ad"><path d="m176.550781 123.585938h158.898438c9.75 0 17.652343 7.90625 17.652343 17.65625v35.308593c0 9.75-7.902343 17.65625-17.652343 17.65625h-158.898438c-9.75 0-17.652343-7.90625-17.652343-17.65625v-35.308593c0-9.75 7.902343-17.65625 17.652343-17.65625zm0 0"/><path d="m35.308594 335.449219c-4.875 0-8.824219-3.953125-8.824219-8.828125v-8.828125c0-4.875 3.949219-8.828125 8.824219-8.828125 4.878906 0 8.828125 3.953125 8.828125 8.828125v8.828125c0 4.875-3.949219 8.828125-8.828125 8.828125zm0 0"/><path d="m35.308594 291.308594c-4.875 0-8.824219-3.949219-8.824219-8.824219v-105.933594c0-4.875 3.949219-8.828125 8.824219-8.828125 4.878906 0 8.828125 3.953125 8.828125 8.828125v105.933594c0 4.875-3.949219 8.824219-8.828125 8.824219zm0 0"/></g></svg>