<svg height="511pt" viewBox="-51 0 511 511.99577" width="511pt" xmlns="http://www.w3.org/2000/svg"><path d="m393.023438 315.730469c0 49.789062-19.78125 97.539062-54.988282 132.746093-35.203125 35.207032-82.957031 54.984376-132.746094 54.984376-4.351562 0-8.617187-.167969-12.800781-.511719-98.472656-6.691407-174.929687-88.519531-174.929687-187.21875 0-98.703125 76.457031-180.53125 174.929687-187.222657 4.183594-.339843 8.449219-.511718 12.800781-.511718 103.683594 0 187.734376 84.050781 187.734376 187.734375zm0 0" fill="#624421"/><path d="m367.421875 315.730469c0-103.402344-78.320313-187.222657-174.933594-187.222657s-174.933593 83.820313-174.933593 187.222657c0 103.398437 78.320312 187.21875 174.933593 187.21875s174.933594-83.820313 174.933594-187.21875zm0 0" fill="#825a2c"/><path d="m384.328125 145.066406c-6.144531.015625-11.835937-3.230468-14.949219-8.53125-34.195312-58.15625-96.625-93.867187-164.089844-93.867187-67.464843 0-129.890624 35.710937-164.089843 93.867187-4.820313 8.171875-15.316407 10.957032-23.550781 6.242188-3.953126-2.234375-6.84375-5.957032-8.03125-10.335938-1.1875-4.382812-.566407-9.054687 1.714843-12.980468 40.429688-68.730469 114.21875-110.929688 193.957031-110.929688 79.742188 0 153.527344 42.199219 193.957032 110.929688 2.28125 3.921874 2.898437 8.597656 1.710937 12.976562-1.183593 4.378906-4.078125 8.101562-8.027343 10.335938-2.617188 1.503906-5.582032 2.292968-8.601563 2.292968zm0 0" fill="#a0522d"/><path d="m392.9375 142.757812c-2.628906 1.496094-5.597656 2.289063-8.617188 2.304688-4.875.027344-9.53125-2.019531-12.800781-5.632812 5.007813-5.46875 5.875-13.5625 2.132813-19.96875-38.121094-64.796876-106.101563-106.265626-181.164063-110.503907 4.269531-.34375 8.535157-.429687 12.800781-.429687 79.738282.015625 153.519532 42.214844 193.964844 110.933594 2.296875 3.917968 2.921875 8.59375 1.734375 12.976562s-4.089843 8.101562-8.050781 10.320312zm0 0" fill="#783e22"/><path d="m205.289062 511.996094c-108.394531 0-196.265624-87.871094-196.265624-196.265625s87.871093-196.269531 196.265624-196.269531c108.394532 0 196.265626 87.875 196.265626 196.269531-.121094 108.34375-87.921876 196.144531-196.265626 196.265625zm0-375.46875c-98.96875 0-179.199218 80.230468-179.199218 179.203125 0 98.96875 80.230468 179.199219 179.199218 179.199219s179.199219-80.230469 179.199219-179.199219c-.109375-98.925781-80.277343-179.089844-179.199219-179.203125zm0 0"/><path d="m337.300781 148.050781c-2.25 0-4.40625-.886719-6-2.476562-69.855469-68.953125-182.160156-68.953125-252.015625 0-2.140625 2.273437-5.347656 3.199219-8.367187 2.414062-3.023438-.785156-5.371094-3.160156-6.128907-6.1875-.757812-3.027343.199219-6.226562 2.492188-8.34375 76.5-75.542969 199.519531-75.542969 276.015625 0 2.453125 2.433594 3.199219 6.105469 1.882813 9.304688-1.3125 3.195312-4.421876 5.28125-7.878907 5.289062zm0 0"/><path d="m384.332031 153.601562c-9.175781-.007812-17.664062-4.863281-22.316406-12.769531-32.667969-55.535156-92.289063-89.632812-156.722656-89.632812-64.429688 0-124.050781 34.097656-156.71875 89.632812-7.214844 12.179688-22.847657 16.339844-35.160157 9.359375-5.921874-3.363281-10.257812-8.957031-12.035156-15.535156-1.773437-6.578125-.847656-13.589844 2.578125-19.480469 41.960938-71.355469 118.554688-115.175781 201.332031-115.175781 82.777344 0 159.375 43.8125 201.335938 115.167969 3.425781 5.886719 4.351562 12.902343 2.574219 19.480469-1.777344 6.578124-6.109375 12.171874-12.035157 15.535156-3.90625 2.238281-8.332031 3.414062-12.832031 3.417968zm-179.042969-119.472656c70.5.015625 135.726563 37.332032 171.46875 98.101563 2.527344 4.023437 7.738282 5.398437 11.921876 3.144531 1.996093-1.121094 3.457031-2.996094 4.050781-5.207031.585937-2.164063.277343-4.476563-.859375-6.410157-38.902344-66.105468-109.878906-106.691406-186.582032-106.691406-76.703124.003906-147.679687 40.589844-186.578124 106.699219-1.136719 1.929687-1.449219 4.242187-.859376 6.402344.59375 2.207031 2.046876 4.078125 4.03125 5.203125 4.175782 2.375 9.488282.972656 11.949219-3.152344 35.738281-60.761719 100.964844-98.074219 171.457031-98.089844zm0 0"/><path d="m77.140625 187.351562c-4.238281.125-7.867187-3.019531-8.335937-7.234374l-.082032-.769532-7.859375-78.753906c-.34375-3.054688.984375-6.054688 3.472657-7.859375 2.488281-1.800781 5.753906-2.125 8.550781-.851563 2.796875 1.277344 4.6875 3.957032 4.957031 7.019532l7.851562 78.675781c.503907 4.75-2.839843 9.042969-7.566406 9.71875-.328125.035156-.660156.050781-.988281.054687zm0 0"/><path d="m341.863281 179.273438-8.574219-.078126-8.484374-.921874.085937-.765626 7.84375-78.605468c.265625-3.0625 2.160156-5.742188 4.957031-7.019532 2.796875-1.273437 6.0625-.949218 8.550782.855469 2.488281 1.800781 3.816406 4.804688 3.472656 7.855469zm0 0"/><path d="m205.289062 136.527344c-4.710937 0-8.53125-3.820313-8.53125-8.53125v-85.332032c0-4.714843 3.820313-8.535156 8.53125-8.535156 4.714844 0 8.535157 3.820313 8.535157 8.535156v85.332032c0 4.710937-3.820313 8.53125-8.535157 8.53125zm0 0"/></svg>