<svg height="512pt" viewBox="0 -60 512 512" width="512pt" xmlns="http://www.w3.org/2000/svg"><path d="m81.578125 349.925781-5.289063 21.25c-2.414062 8.992188-11.589843 14.390625-20.625 12.132813-9.03125-2.257813-14.589843-11.339844-12.484374-20.410156l3.667968-14.679688v-303.785156l-3.667968-14.675782c-2.105469-9.070312 3.453124-18.15625 12.484374-20.414062 9.035157-2.257812 18.210938 3.140625 20.625 12.136719l5.289063 21.246093zm0 0" fill="#a0522d"/><path d="m430.421875 349.925781 5.289063 21.25c2.414062 8.992188 11.589843 14.390625 20.625 12.132813 9.03125-2.257813 14.589843-11.339844 12.484374-20.410156l-3.667968-14.679688v-303.785156l3.667968-14.675782c2.105469-9.070312-3.453124-18.15625-12.484374-20.414062-9.035157-2.257812-18.210938 3.140625-20.625 12.136719l-5.289063 21.246093zm0 0" fill="#a0522d"/><path d="m59.734375 42.726562h392.53125c28.277344 0 51.199219 22.921876 51.199219 51.199219v204.800781c0 28.277344-22.921875 51.199219-51.199219 51.199219h-392.53125c-28.277344 0-51.199219-22.921875-51.199219-51.199219v-204.800781c0-28.277343 22.921875-51.199219 51.199219-51.199219zm0 0" fill="#6d4122"/><path d="m59.734375 42.726562h366.933594c28.277343 0 51.199219 22.921876 51.199219 51.199219v204.800781c0 28.277344-22.921876 51.199219-51.199219 51.199219h-366.933594c-28.277344 0-51.199219-22.921875-51.199219-51.199219v-204.800781c0-28.277343 22.921875-51.199219 51.199219-51.199219zm0 0" fill="#91562d"/><path d="m59.734375 76.859375h392.53125c9.425781 0 17.066406 7.640625 17.066406 17.066406v204.800781c0 9.425782-7.640625 17.066407-17.066406 17.066407h-392.53125c-9.425781 0-17.066406-7.640625-17.066406-17.066407v-204.800781c0-9.425781 7.640625-17.066406 17.066406-17.066406zm0 0" fill="#624421"/><path d="m59.734375 76.859375h366.933594c9.425781 0 17.066406 7.640625 17.066406 17.066406v204.800781c0 9.425782-7.640625 17.066407-17.066406 17.066407h-366.933594c-9.425781 0-17.066406-7.640625-17.066406-17.066407v-204.800781c0-9.425781 7.640625-17.066406 17.066406-17.066406zm0 0" fill="#825a2c"/><path d="m315.734375 196.328125c0 32.988281-26.746094 59.730469-59.734375 59.730469s-59.734375-26.742188-59.734375-59.730469c0-32.992187 26.746094-59.734375 59.734375-59.734375s59.734375 26.742188 59.734375 59.734375zm0 0" fill="#ffdc00"/><path d="m281.601562 196.328125c0 14.136719-11.464843 25.597656-25.601562 25.597656s-25.601562-11.460937-25.601562-25.597656c0-14.140625 11.464843-25.601563 25.601562-25.601563s25.601562 11.460938 25.601562 25.601563zm0 0" fill="#ff9801"/><path d="m452.265625 358.460938h-392.53125c-32.976563-.039063-59.6953125-26.757813-59.734375-59.734376v-204.800781c.0390625-32.972656 26.757812-59.695312 59.734375-59.730469h392.53125c32.976563.035157 59.695313 26.757813 59.734375 59.730469v204.800781c-.039062 32.976563-26.757812 59.695313-59.734375 59.734376zm-392.53125-307.199219c-23.554687.027343-42.640625 19.113281-42.667969 42.664062v204.800781c.027344 23.554688 19.113282 42.640626 42.667969 42.667969h392.53125c23.554687-.027343 42.640625-19.113281 42.667969-42.667969v-204.800781c-.027344-23.550781-19.113282-42.636719-42.667969-42.664062zm0 0"/><path d="m452.265625 324.328125h-392.53125c-14.132813-.015625-25.585937-11.46875-25.601563-25.601563v-204.800781c.015626-14.128906 11.46875-25.582031 25.601563-25.597656h392.53125c14.132813.015625 25.585937 11.46875 25.601563 25.597656v204.800781c-.015626 14.132813-11.46875 25.585938-25.601563 25.601563zm-392.53125-238.933594c-4.710937.003907-8.53125 3.820313-8.535156 8.53125v204.800781c.003906 4.710938 3.824219 8.53125 8.535156 8.535157h392.53125c4.710937-.003907 8.53125-3.824219 8.535156-8.535157v-204.800781c-.003906-4.710937-3.824219-8.527343-8.535156-8.53125zm0 0"/><path d="m46.84375 52.96875c-3.914062-.003906-7.324219-2.667969-8.269531-6.464844l-3.675781-14.675781c-3.433594-13.714844 4.898437-27.617187 18.613281-31.054687 13.714843-3.4375 27.617187 4.898437 31.054687 18.613281l5.289063 21.28125c1.136719 4.574219-1.648438 9.207031-6.222657 10.34375-4.578124 1.136719-9.207031-1.652344-10.34375-6.226563l-5.277343-21.25c-1.210938-4.492187-5.796875-7.183594-10.308594-6.054687-4.511719 1.125-7.292969 5.660156-6.246094 10.191406l3.667969 14.691406c1.144531 4.570313-1.632812 9.199219-6.199219 10.347657-.683593.167968-1.382812.253906-2.082031.257812zm0 0"/><path d="m465.15625 52.96875c-2.628906.003906-5.113281-1.207031-6.734375-3.277344-1.617187-2.074218-2.1875-4.777344-1.546875-7.328125l3.675781-14.679687c.554688-2.164063.214844-4.464844-.933593-6.382813-1.179688-1.964843-3.097657-3.375-5.324219-3.914062-2.167969-.5625-4.46875-.226563-6.382813.933593-1.960937 1.152344-3.375 3.042969-3.925781 5.25l-5.277344 21.214844c-.734375 2.960938-2.992187 5.300782-5.921875 6.144532-2.933594.84375-6.089844.058593-8.285156-2.058594-2.195312-2.117188-3.09375-5.242188-2.359375-8.203125l5.285156-21.246094c2.21875-8.875 9-15.890625 17.796875-18.40625 8.792969-2.515625 18.257813-.148437 24.835938 6.210937 6.574218 6.355469 9.257812 15.738282 7.039062 24.613282l-3.667968 14.667968c-.949219 3.792969-4.359376 6.457032-8.273438 6.460938zm0 0"/><path d="m59.726562 392.601562c-7.878906-.003906-15.316406-3.632812-20.164062-9.839843-4.847656-6.210938-6.566406-14.304688-4.660156-21.945313l3.675781-14.667968c.671875-3.027344 2.9375-5.453126 5.910156-6.328126 2.976563-.878906 6.195313-.074218 8.402344 2.101563 2.210937 2.175781 3.066406 5.378906 2.238281 8.367187l-3.675781 14.679688c-1.136719 4.574219 1.648437 9.203125 6.222656 10.339844 4.574219 1.136718 9.207031-1.648438 10.34375-6.226563l5.273438-21.214843c1.136719-4.574219 5.765625-7.363282 10.34375-6.226563 4.574219 1.136719 7.359375 5.769531 6.222656 10.34375l-5.28125 21.246094c-2.886719 11.378906-13.117187 19.351562-24.851563 19.371093zm0 0"/><path d="m452.191406 392.609375c-11.695312-.046875-21.878906-8-24.757812-19.339844l-5.289063-21.285156c-1.136719-4.574219 1.648438-9.203125 6.222657-10.339844 4.578124-1.136719 9.207031 1.648438 10.34375 6.222657l5.285156 21.25c.554687 2.191406 1.964844 4.070312 3.914062 5.21875 1.90625 1.152343 4.195313 1.492187 6.351563.9375 2.238281-.535157 4.171875-1.953126 5.355469-3.925782 1.152343-1.914062 1.488281-4.207031.933593-6.371094l-3.675781-14.6875c-.789062-2.972656.085938-6.140624 2.285156-8.292968 2.203125-2.148438 5.390625-2.945313 8.347656-2.085938 2.953126.859375 5.214844 3.242188 5.921876 6.238282l3.675781 14.675781c1.671875 6.554687.648437 13.503906-2.84375 19.292969-4.667969 7.734374-13.035157 12.46875-22.066407 12.492187zm0 0"/><path d="m256 264.59375c-37.703125 0-68.265625-30.5625-68.265625-68.265625s30.5625-68.269531 68.265625-68.269531 68.265625 30.566406 68.265625 68.269531c-.042969 37.683594-30.582031 68.222656-68.265625 68.265625zm0-119.464844c-28.277344 0-51.199219 22.921875-51.199219 51.199219s22.921875 51.199219 51.199219 51.199219 51.199219-22.921875 51.199219-51.199219c-.03125-28.265625-22.933594-51.167969-51.199219-51.199219zm0 0"/><path d="m256 230.460938c-18.851562 0-34.132812-15.28125-34.132812-34.132813s15.28125-34.132813 34.132812-34.132813 34.132812 15.28125 34.132812 34.132813c-.019531 18.84375-15.289062 34.113281-34.132812 34.132813zm0-51.199219c-9.425781 0-17.066406 7.640625-17.066406 17.066406s7.640625 17.066406 17.066406 17.066406 17.066406-7.640625 17.066406-17.066406c-.011718-9.421875-7.644531-17.058594-17.066406-17.066406zm0 0"/></svg>