<svg height="512pt" viewBox="-85 0 512 512" width="512pt" xmlns="http://www.w3.org/2000/svg"><path d="m34.132812 238.933594h34.132813v264.53125h-17.066406c-9.425781 0-17.066407-7.640625-17.066407-17.066406zm0 0" fill="#a0522d"/><path d="m25.601562 8.535156h290.132813c9.425781 0 17.066406 7.640625 17.066406 17.066406v213.332032c0 9.425781-7.640625 17.066406-17.066406 17.066406h-290.132813c-9.425781 0-17.066406-7.640625-17.066406-17.066406v-213.332032c0-9.425781 7.640625-17.066406 17.066406-17.066406zm0 0" fill="#6d4122"/><path d="m25.601562 8.535156h264.53125c9.425782 0 17.066407 7.640625 17.066407 17.066406v213.332032c0 9.425781-7.640625 17.066406-17.066407 17.066406h-264.53125c-9.425781 0-17.066406-7.640625-17.066406-17.066406v-213.332032c0-9.425781 7.640625-17.066406 17.066406-17.066406zm0 0" fill="#91562d"/><path d="m68.265625 512c-4.710937 0-8.53125-3.820312-8.53125-8.535156 0-4.710938 3.820313-8.53125 8.53125-8.53125 131.898437-.148438 238.785156-107.035156 238.933594-238.933594 0-4.710938 3.820312-8.535156 8.535156-8.535156 4.710937 0 8.53125 3.824218 8.53125 8.535156-.160156 141.320312-114.679687 255.839844-256 256zm0 0"/><path d="m68.265625 512h-17.066406c-14.132813-.015625-25.582031-11.46875-25.597657-25.601562v-230.398438c0-4.710938 3.820313-8.535156 8.53125-8.535156h34.132813c4.714844 0 8.535156 3.824218 8.535156 8.535156v247.464844c0 4.714844-3.820312 8.535156-8.535156 8.535156zm-25.597656-247.464844v221.863282c0 4.714843 3.820312 8.53125 8.53125 8.535156h8.535156v-230.398438zm0 0"/><path d="m315.734375 264.535156h-290.132813c-14.132812-.015625-25.585937-11.46875-25.601562-25.601562v-213.332032c.015625-14.132812 11.46875-25.585937 25.601562-25.601562h290.132813c14.132813.015625 25.582031 11.46875 25.597656 25.601562v213.332032c-.015625 14.132812-11.464843 25.585937-25.597656 25.601562zm-290.132813-247.46875c-4.714843.003906-8.53125 3.820313-8.535156 8.535156v213.332032c.003906 4.710937 3.820313 8.53125 8.535156 8.53125h290.132813c4.710937 0 8.53125-3.820313 8.53125-8.53125v-213.332032c0-4.714843-3.820313-8.53125-8.53125-8.535156zm0 0"/><path d="m51.199219 51.199219h-8.53125c-4.714844 0-8.535157-3.820313-8.535157-8.53125 0-4.714844 3.820313-8.535157 8.535157-8.535157h8.53125c4.714843 0 8.535156 3.820313 8.535156 8.535157 0 4.710937-3.820313 8.53125-8.535156 8.53125zm0 0"/><path d="m298.667969 51.199219h-213.335938c-4.710937 0-8.53125-3.820313-8.53125-8.53125 0-4.714844 3.820313-8.535157 8.53125-8.535157h213.335938c4.710937 0 8.53125 3.820313 8.53125 8.535157 0 4.710937-3.820313 8.53125-8.53125 8.53125zm0 0"/></svg>