<svg height="512pt" viewBox="0 -51 512 512" width="512pt" xmlns="http://www.w3.org/2000/svg"><path d="m486.398438 298.667969v34.132812c-.027344 9.414063-7.652344 17.039063-17.066407 17.066407h-426.664062c-9.414063-.027344-17.039063-7.652344-17.066407-17.066407v-34.132812zm0 0" fill="#624421"/><path d="m460.800781 298.667969v34.132812c-.027343 9.414063-7.652343 17.039063-17.066406 17.066407h-401.066406c-9.414063-.027344-17.039063-7.652344-17.066407-17.066407v-34.132812zm0 0" fill="#825a2c"/><path d="m25.601562 8.535156h460.796876c9.425781 0 17.066406 7.640625 17.066406 17.066406v273.066407c0 9.425781-7.640625 17.066406-17.066406 17.066406h-460.796876c-9.425781 0-17.066406-7.640625-17.066406-17.066406v-273.066407c0-9.425781 7.640625-17.066406 17.066406-17.066406zm0 0" fill="#6d4122"/><path d="m25.601562 8.535156h435.199219c9.425781 0 17.066407 7.640625 17.066407 17.066406v273.066407c0 9.425781-7.640626 17.066406-17.066407 17.066406h-435.199219c-9.425781 0-17.066406-7.640625-17.066406-17.066406v-273.066407c0-9.425781 7.640625-17.066406 17.066406-17.066406zm0 0" fill="#91562d"/><path d="m486.398438 324.265625h-460.796876c-14.132812-.015625-25.585937-11.46875-25.601562-25.597656v-273.066407c.015625-14.132812 11.46875-25.585937 25.601562-25.601562h460.796876c14.132812.015625 25.585937 11.46875 25.601562 25.601562v273.066407c-.015625 14.128906-11.46875 25.582031-25.601562 25.597656zm-460.796876-307.199219c-4.710937.003906-8.53125 3.824219-8.535156 8.535156v273.066407c.003906 4.710937 3.824219 8.527343 8.535156 8.53125h460.796876c4.710937-.003907 8.53125-3.820313 8.535156-8.53125v-273.066407c-.003906-4.710937-3.824219-8.53125-8.535156-8.535156zm0 0"/><path d="m469.332031 358.398438h-426.664062c-14.132813-.015626-25.585938-11.464844-25.601563-25.597657v-17.066406c0-4.714844 3.820313-8.535156 8.535156-8.535156h460.796876c4.714843 0 8.535156 3.820312 8.535156 8.535156v17.066406c-.015625 14.132813-11.46875 25.582031-25.601563 25.597657zm-435.199219-34.132813v8.535156c.003907 4.710938 3.824219 8.527344 8.535157 8.53125h426.664062c4.710938-.003906 8.53125-3.820312 8.535157-8.53125v-8.535156zm0 0"/><path d="m256 409.601562c-18.851562 0-34.132812-15.285156-34.132812-34.136718 0-18.847656 15.28125-34.132813 34.132812-34.132813s34.132812 15.285157 34.132812 34.132813c-.019531 18.84375-15.289062 34.117187-34.132812 34.136718zm0-51.203124c-9.425781 0-17.066406 7.640624-17.066406 17.066406 0 9.425781 7.640625 17.070312 17.066406 17.070312s17.066406-7.644531 17.066406-17.070312c-.011718-9.417969-7.644531-17.054688-17.066406-17.066406zm0 0"/><path d="m51.199219 51.199219h-8.53125c-4.714844 0-8.535157-3.820313-8.535157-8.53125 0-4.714844 3.820313-8.535157 8.535157-8.535157h8.53125c4.714843 0 8.535156 3.820313 8.535156 8.535157 0 4.710937-3.820313 8.53125-8.535156 8.53125zm0 0"/><path d="m315.734375 51.199219h-230.402344c-4.710937 0-8.53125-3.820313-8.53125-8.53125 0-4.714844 3.820313-8.535157 8.53125-8.535157h230.402344c4.710937 0 8.53125 3.820313 8.53125 8.535157 0 4.710937-3.820313 8.53125-8.53125 8.53125zm0 0"/></svg>