<svg height="512pt" viewBox="0 0 512 512.004" width="512pt" xmlns="http://www.w3.org/2000/svg"><path d="m426.667969 256.003906c0 94.257813-76.410157 170.667969-170.667969 170.667969s-170.667969-76.410156-170.667969-170.667969c0-94.257812 76.410157-170.667968 170.667969-170.667968s170.667969 76.410156 170.667969 170.667968zm0 0" fill="#825a2c"/><path d="m122.710938 332.207031c13.5625 23.804688 33.28125 43.523438 57.085937 57.085938l14.25 44.035156v-.085937h-.085937c-53.898438-18.914063-96.285157-61.300782-115.199219-115.199219v-.085938h-.085938zm0 0" fill="#ff9801"/><path d="m433.238281 193.964844v.085937l-29.101562-9.472656-14.847657-4.777344c-13.5625-23.804687-33.28125-43.523437-57.085937-57.085937l-9.898437-30.464844-4.351563-13.484375h.085937c53.898438 18.914063 96.285157 61.300781 115.199219 115.199219zm0 0" fill="#f57c00"/><path d="m433.238281 317.957031v.085938c-18.914062 53.898437-61.300781 96.285156-115.199219 115.199219h-.085937l4.4375-13.484376 9.8125-30.464843c23.804687-13.5625 43.523437-33.28125 57.085937-57.085938l14.847657-4.777343zm0 0" fill="#f57c00"/><g fill="#ff9801"><path d="m404.136719 184.578125-14.847657-4.777344c-13.5625-23.804687-33.28125-43.523437-57.085937-57.085937l-9.898437-30.464844c36.859374 20.730469 65.679687 53.25 81.832031 92.328125zm0 0"/><path d="m404.136719 327.429688c-16.144531 39.058593-44.929688 71.570312-81.746094 92.328124l9.8125-30.464843c23.804687-13.5625 43.523437-33.28125 57.085937-57.085938zm0 0"/><path d="m122.710938 179.800781c13.5625-23.804687 33.28125-43.523437 57.085937-57.085937l14.25-43.949219h-.085937c-53.898438 18.914063-96.285157 61.300781-115.199219 115.199219v.085937zm0 0"/></g><path d="m332.800781 132.269531c.015625 7.300781-.84375 14.578125-2.5625 21.675781-.597656 2.816407-1.363281 5.460938-2.21875 8.191407-.851562 2.902343-1.875 5.71875-2.984375 8.535156-3.714844 9.492187-8.433594 18.5625-14.082031 27.050781-.0625.128906-.148437.242188-.253906.339844-1.109375 1.792969-2.304688 3.5-3.5 5.207031l-1.023438 1.535157-3.070312 4.09375c-1.109375 1.539062-2.304688 2.988281-3.414063 4.4375l-1.023437 1.28125c-12.277344 15.09375-26.25 28.722656-41.644531 40.617187-.265626.183594-.523438.386719-.769532.597656-.089844.046875-.175781.101563-.253906.171875l-.085938-.085937c-.171874-.171875-.425781-.597657-.9375-1.28125-.34375-.425781-.769531-.9375-1.28125-1.621094-.425781-.511719-.851562-1.109375-1.363281-1.703125v-.085938c-1.707031-2.050781-3.925781-4.78125-6.65625-7.851562-5.933593-6.765625-12.199219-13.230469-18.773437-19.371094-2.476563-2.304687-5.121094-4.609375-7.9375-6.996094-1.449219-1.195312-2.902344-2.476562-4.4375-3.671874-.359375-.359376-.761719-.671876-1.195313-.9375-1.449219-1.195313-2.898437-2.390626-4.4375-3.5l-3.070312-4.09375c-1.535157-2.21875-3.074219-4.4375-4.609375-6.742188-.089844-.09375-.148438-.210938-.167969-.339844-5.597656-8.519531-10.316406-17.582031-14.082031-27.050781-1.109375-2.816406-2.132813-5.632813-2.988282-8.535156-.851562-2.730469-1.621093-5.375-2.214843-8.191407-1.71875-7.097656-2.578125-14.375-2.5625-21.675781-.027344-1.453125.027343-2.90625.171875-4.351562.011718-1.742188.152344-3.484375.425781-5.203125.085937-1.109375.257813-2.21875.425781-3.246094.339844-2.871094.851563-5.722656 1.539063-8.53125 2.03125-9.222656 5.183593-18.164062 9.386719-26.625.9375-1.875 1.875-3.753906 2.8125-5.546875h.085937c.320313-.679687.691406-1.335937 1.109375-1.960937 1.621094-2.902344 3.328125-5.71875 5.121094-8.535157 11.957031-18.34375 26.402344-34.945312 42.921875-49.320312 7.679687-6.65625 12.800781-10.410157 12.800781-10.410157 21.847656 16.582032 40.695312 36.785157 55.722656 59.730469 1.792969 2.816407 3.5 5.632813 5.121094 8.535157.417969.625.789062 1.28125 1.109375 1.960937h.085937c.9375 1.792969 1.875 3.671875 2.8125 5.546875 4.203126 8.460938 7.355469 17.402344 9.386719 26.625.6875 2.808594 1.199219 5.660156 1.539063 8.53125.167968 1.027344.339844 2.136719.425781 3.246094.273437 1.71875.414063 3.460937.425781 5.203125.140625 1.445312.199219 2.898437.171875 4.351562zm0 0" fill="#90ac00"/><path d="m332.800781 379.738281c.027344 1.453125-.03125 2.90625-.171875 4.351563-.011718 1.742187-.152344 3.484375-.425781 5.203125-.390625 3.964843-1.046875 7.902343-1.964844 11.777343-2.03125 9.222657-5.183593 18.164063-9.386719 26.625-.851562 1.875-1.875 3.753907-2.8125 5.546876h-.085937v.085937c-1.867187 3.574219-3.917969 7.050781-6.144531 10.410156-15.101563 22.914063-33.96875 43.113281-55.808594 59.730469 0 0-5.121094-3.753906-12.800781-10.410156-16.527344-14.394532-30.996094-30.988282-43.007813-49.320313-2.230468-3.359375-4.28125-6.835937-6.144531-10.410156v-.085937h-.085937c-.9375-1.792969-1.960938-3.671876-2.8125-5.546876-4.203126-8.460937-7.355469-17.402343-9.386719-26.625-.917969-3.875-1.574219-7.8125-1.964844-11.777343-.273437-1.71875-.414063-3.460938-.425781-5.203125-.144532-1.445313-.199219-2.898438-.171875-4.351563.003906-7.296875.832031-14.566406 2.476562-21.675781 1.304688-5.699219 3.046875-11.289062 5.203125-16.726562 3.796875-9.472657 8.542969-18.535157 14.167969-27.050782.0625-.125.148437-.242187.253906-.339844 2.390625-3.753906 4.949219-7.425781 7.59375-10.835937 1.109375-1.539063 2.304688-2.988281 3.414063-4.4375l1.023437-1.28125c8.363281-10.261719 17.523438-19.847656 27.394531-28.671875.597657-.511719 1.109376-1.023438 1.621094-1.449219 1.023438-.941406 1.960938-1.792969 2.898438-2.5625 4.609375-4.007812 8.109375-6.65625 9.730468-7.851562l1.023438-.765625c.171875.253906.597656.765625 1.195312 1.535156.683594.9375 1.707032 2.132812 2.902344 3.753906.425782.429688.851563.941406 1.277344 1.453125.597656.765625 1.28125 1.535157 1.964844 2.386719.679687.769531 1.449218 1.621094 2.21875 2.5625 2.386718 2.816406 5.289062 6.058594 8.617187 9.472656 2.902344 2.984375 6.058594 6.140625 9.472657 9.300782.183593.265624.414062.5.683593.679687 1.875 1.707031 3.839844 3.585937 5.886719 5.378906 2.304688 2.046875 4.691406 4.09375 7.253906 6.058594.359375.359375.761719.671875 1.195313.9375 1.449219 1.195313 2.898437 2.390625 4.4375 3.5 2.644531 3.410156 5.203125 7.082031 7.59375 10.835937.105469.097657.191406.214844.253906.339844 5.625 8.515625 10.371094 17.578125 14.167969 27.050782 2.15625 5.4375 3.898437 11.027343 5.203125 16.726562 1.644531 7.109375 2.472656 14.378906 2.476562 21.675781zm0 0" fill="#90ac00"/><path d="m307.199219 132.269531c.015625 7.300781-.84375 14.578125-2.558594 21.675781-.597656 2.816407-1.367187 5.460938-2.21875 8.191407-.855469 2.902343-1.878906 5.71875-2.988281 8.535156-3.710938 9.492187-8.433594 18.5625-14.078125 27.050781-.066407.128906-.152344.242188-.257813.339844-1.109375 1.792969-2.304687 3.5-3.496094 5.207031l-1.027343 1.535157-3.070313 4.09375c-1.109375 1.539062-2.304687 2.988281-3.414062 4.4375l-1.023438 1.28125c-8.363281 10.285156-17.523437 19.902343-27.390625 28.757812-5.933593-6.765625-12.199219-13.230469-18.773437-19.371094-2.476563-2.304687-5.121094-4.609375-7.9375-6.996094-1.449219-1.195312-2.902344-2.476562-4.4375-3.671874-.359375-.359376-.761719-.671876-1.195313-.9375-1.449219-1.195313-2.898437-2.390626-4.4375-3.5l-3.070312-4.09375c-1.535157-2.21875-3.074219-4.4375-4.609375-6.742188-.089844-.09375-.148438-.210938-.167969-.339844-5.597656-8.519531-10.316406-17.582031-14.082031-27.050781-1.109375-2.816406-2.132813-5.632813-2.988282-8.535156-.851562-2.730469-1.621093-5.375-2.214843-8.191407-1.71875-7.097656-2.578125-14.375-2.5625-21.675781-.027344-1.453125.027343-2.90625.171875-4.351562.011718-1.742188.152344-3.484375.425781-5.203125.085937-1.109375.257813-2.21875.425781-3.246094.339844-2.871094.851563-5.722656 1.539063-8.53125 2.03125-9.222656 5.183593-18.164062 9.386719-26.625.9375-1.875 1.875-3.753906 2.8125-5.546875h.085937c.320313-.679687.691406-1.335937 1.109375-1.960937 1.621094-2.902344 3.328125-5.71875 5.121094-8.535157 11.957031-18.34375 26.402344-34.945312 42.921875-49.320312 16.519531 14.375 30.964843 30.976562 42.921875 49.320312 1.792968 2.816407 3.5 5.632813 5.121094 8.535157.421874.625.792968 1.28125 1.109374 1.960937h.085938c.9375 1.792969 1.878906 3.671875 2.816406 5.546875 4.199219 8.460938 7.351563 17.402344 9.386719 26.625.683594 2.808594 1.195313 5.660156 1.535156 8.53125.171875 1.027344.339844 2.136719.425781 3.246094.273438 1.71875.417969 3.460937.425782 5.203125.144531 1.445312.199218 2.898437.171875 4.351562zm0 0" fill="#a4c400"/><path d="m307.199219 379.738281c.027343 1.453125-.027344 2.90625-.171875 4.351563-.007813 1.742187-.152344 3.484375-.425782 5.203125-.390624 3.964843-1.046874 7.902343-1.960937 11.777343-2.035156 9.222657-5.1875 18.164063-9.386719 26.625-.855468 1.875-1.878906 3.753907-2.816406 5.546876h-.085938v.085937c-1.863281 3.574219-3.914062 7.050781-6.144531 10.410156-12.007812 18.332031-26.480469 34.925781-43.007812 49.320313-16.527344-14.394532-30.996094-30.988282-43.007813-49.320313-2.230468-3.359375-4.28125-6.835937-6.144531-10.410156v-.085937h-.085937c-.9375-1.792969-1.960938-3.671876-2.8125-5.546876-4.203126-8.460937-7.355469-17.402343-9.386719-26.625-.917969-3.875-1.574219-7.8125-1.964844-11.777343-.273437-1.71875-.414063-3.460938-.425781-5.203125-.144532-1.445313-.199219-2.898438-.171875-4.351563.003906-7.296875.832031-14.566406 2.476562-21.675781 1.304688-5.699219 3.046875-11.289062 5.203125-16.726562 3.796875-9.472657 8.542969-18.535157 14.167969-27.050782.0625-.125.148437-.242187.253906-.339844 2.390625-3.753906 4.949219-7.425781 7.59375-10.835937 1.109375-1.539063 2.304688-2.988281 3.414063-4.4375l1.023437-1.28125c8.363281-10.261719 17.523438-19.847656 27.394531-28.671875 2.21875 2.558594 4.863282 5.460938 7.847657 8.535156 2.902343 2.984375 6.058593 6.140625 9.472656 9.300782.183594.265624.414063.5.683594.679687 1.878906 1.707031 3.839843 3.585937 5.886719 5.378906 2.304687 2.046875 4.695312 4.09375 7.253906 6.058594.359375.359375.761718.671875 1.195312.9375 1.449219 1.195313 2.902344 2.390625 4.4375 3.5 2.644532 3.410156 5.207032 7.082031 7.59375 10.835937.105469.097657.191406.214844.257813.339844 5.625 8.515625 10.371093 17.578125 14.164062 27.050782 2.160157 5.4375 3.898438 11.027343 5.207031 16.726562 1.640626 7.109375 2.46875 14.378906 2.472657 21.675781zm0 0" fill="#a4c400"/><path d="m256 256.003906v.085938l-1.023438.765625c-1.621093 1.195312-5.121093 3.84375-9.730468 7.851562-.9375.769531-1.875 1.621094-2.898438 2.5625-10.496094 9.210938-20.199218 19.289063-29.015625 30.121094l-1.023437 1.28125c-1.109375 1.449219-2.304688 2.898437-3.414063 4.4375l-4.09375 3.070313-1.535156 1.023437c-1.707031 1.195313-3.414063 2.390625-5.207031 3.5-.097656.105469-.214844.191406-.339844.253906-8.488281 5.648438-17.558594 10.367188-27.050781 14.082031-2.816407 1.109376-5.632813 2.132813-8.535157 2.984376-2.730468.855468-5.375 1.625-8.191406 2.21875-7.097656 1.71875-14.375 2.578124-21.675781 2.5625-1.453125.027343-2.90625-.03125-4.351563-.171876-1.742187-.011718-3.484374-.152343-5.203124-.425781-1.109376-.085937-2.136719-.257812-3.246094-.425781-2.871094-.339844-5.722656-.851562-8.53125-1.539062-9.210938-2.042969-18.144532-5.164063-26.625-9.300782-1.875-.9375-3.753906-1.875-5.546875-2.898437v-.085938h-.085938c-.597656-.34375-1.277343-.683593-1.875-1.023437-2.902343-1.621094-5.71875-3.328125-8.535156-5.121094-22.9375-15.074219-43.136719-33.945312-59.734375-55.808594 16.585938-21.847656 36.789062-40.695312 59.734375-55.722656 2.816406-1.792969 5.632813-3.5 8.535156-5.121094.625-.417968 1.28125-.789062 1.960938-1.109375v-.085937c1.792969-1.023438 3.671875-1.960938 5.546875-2.8125 8.460937-4.203125 17.402344-7.355469 26.625-9.386719 2.808594-.6875 5.660156-1.199219 8.53125-1.539063 1.109375-.167968 2.136718-.339843 3.246094-.425781 1.71875-.273437 3.460937-.414062 5.203124-.425781 1.445313-.140625 2.898438-.199219 4.351563-.171875 7.300781-.015625 14.578125.84375 21.675781 2.5625 2.816406.59375 5.460938 1.363281 8.191406 2.21875 2.902344.851563 5.71875 1.875 8.535157 2.984375 9.46875 3.765625 18.53125 8.484375 27.050781 14.082031.125.019531.246094.078125.339844.167969 2.304687 1.539062 4.523437 3.074219 6.742187 4.609375l4.09375 3.070313c1.539063 1.109374 2.988281 2.304687 4.4375 3.5.433594.265624.835938.578124 1.195313.9375 1.535156 1.195312 2.988281 2.476562 4.4375 3.671874 2.816406 2.386719 5.460937 4.691407 7.9375 6.996094 9.082031 8.488282 17.578125 17.582032 25.429687 27.222656v.085938c.511719.59375.9375 1.191406 1.363281 1.703125.511719.683594.9375 1.195313 1.28125 1.621094.511719.683593.765626 1.109375.9375 1.28125zm0 0" fill="#008a00"/><path d="m503.464844 256.003906c-16.59375 21.863282-36.792969 40.734375-59.730469 55.808594-2.816406 1.792969-5.632813 3.5-8.535156 5.121094-.597657.339844-1.28125.679687-1.875 1.023437h-.085938v.085938c-1.792969.9375-3.671875 1.875-5.546875 2.8125-8.460937 4.203125-17.402344 7.355469-26.625 9.386719-2.8125.6875-5.660156 1.199218-8.535156 1.539062-1.023438.167969-2.132812.339844-3.242188.425781-1.71875.273438-3.460937.414063-5.203124.425781-1.445313.140626-2.898438.199219-4.351563.171876-5.84375.023437-11.671875-.519532-17.410156-1.621094-1.449219-.257813-2.816407-.597656-4.265625-.941406-2.816406-.59375-5.460938-1.363282-8.191406-2.21875-2.902344-.851563-5.71875-1.875-8.535157-2.984376-9.492187-3.714843-18.5625-8.433593-27.050781-14.082031-.128906-.0625-.242188-.148437-.339844-.253906-1.792968-1.109375-3.5-2.304687-5.207031-3.5l-1.535156-1.023437-4.09375-3.070313c-1.539063-1.109375-2.988281-2.304687-4.4375-3.5-.433594-.265625-.835938-.578125-1.195313-.9375-2.5625-1.964844-4.949218-4.011719-7.253906-6.058594-2.046875-1.792969-4.011719-3.671875-5.886719-5.378906-.269531-.179687-.5-.414063-.683593-.679687-3.414063-3.160157-6.570313-6.316407-9.472657-9.300782-3.328125-3.414062-6.230469-6.65625-8.617187-9.472656-.769532-.941406-1.539063-1.792969-2.21875-2.5625-.683594-.851562-1.367188-1.621094-1.964844-2.386719-.425781-.511719-.851562-1.023437-1.277344-1.453125-1.195312-1.621094-2.21875-2.816406-2.902344-3.753906-.597656-.769531-1.023437-1.28125-1.195312-1.535156v-.085938c.078125-.070312.164062-.125.253906-.171875.246094-.210937.503906-.414062.769532-.597656 15.394531-11.894531 29.367187-25.523437 41.644531-40.617187l1.023437-1.28125c1.109375-1.449219 2.304688-2.898438 3.414063-4.4375l4.09375-3.070313 1.535156-1.023437c1.707031-1.195313 3.414063-2.390626 5.207031-3.5.097656-.105469.210938-.191407.339844-.253907 8.488281-5.648437 17.558594-10.367187 27.050781-14.082031 2.816407-1.109375 5.632813-2.132812 8.535157-2.984375 2.730468-.855469 5.375-1.625 8.191406-2.21875 1.449218-.34375 2.816406-.683594 4.265625-.941406 5.738281-1.101563 11.566406-1.644531 17.410156-1.621094 1.453125-.027344 2.90625.03125 4.351563.171875 1.742187.011719 3.484374.152344 5.203124.425781 1.109376.085938 2.21875.257813 3.242188.425781 2.875.339844 5.722656.851563 8.535156 1.539063 9.222656 2.03125 18.164063 5.183594 26.625 9.386719 1.875.9375 3.753906 1.875 5.546875 2.8125v.085937c.679688.320313 1.335938.691407 1.960938 1.109375 2.902343 1.621094 5.71875 3.328125 8.535156 5.121094 22.945313 15.027344 43.148437 33.875 59.730469 55.722656zm0 0" fill="#007900"/><path d="m469.332031 256.003906c-16.59375 21.863282-36.792969 40.734375-59.730469 55.808594-2.816406 1.792969-5.632812 3.5-8.535156 5.121094-.597656.339844-1.28125.679687-1.878906 1.023437h-.082031v.085938c-1.792969.9375-3.671875 1.875-5.546875 2.8125-8.460938 4.203125-17.402344 7.355469-26.625 9.386719-1.535156.34375-3.074219.683593-4.609375.941406-1.449219-.257813-2.816407-.597656-4.265625-.941406-2.816406-.59375-5.460938-1.363282-8.191406-2.21875-2.902344-.851563-5.71875-1.875-8.535157-2.984376-9.492187-3.714843-18.5625-8.433593-27.050781-14.082031-.128906-.0625-.242188-.148437-.339844-.253906-1.792968-1.109375-3.5-2.304687-5.207031-3.5l-1.535156-1.023437-4.09375-3.070313c-1.539063-1.109375-2.988281-2.304687-4.4375-3.5-.433594-.265625-.835938-.578125-1.195313-.9375-2.5625-1.964844-4.949218-4.011719-7.253906-6.058594-2.046875-1.792969-4.011719-3.671875-5.886719-5.378906-.269531-.179687-.5-.414063-.683593-.679687-3.414063-3.160157-6.570313-6.316407-9.472657-9.300782-3.328125-3.414062-6.230469-6.65625-8.617187-9.472656-.769532-.941406-1.539063-1.792969-2.21875-2.5625-.683594-.851562-1.367188-1.621094-1.964844-2.386719-.425781-.511719-.851562-1.023437-1.277344-1.453125-1.195312-1.621094-2.21875-2.816406-2.902344-3.753906-.597656-.769531-1.023437-1.28125-1.195312-1.535156v-.085938c.078125-.070312.164062-.125.253906-.171875.246094-.210937.503906-.414062.769532-.597656 15.394531-11.894531 29.367187-25.523437 41.644531-40.617187l1.023437-1.28125c1.109375-1.449219 2.304688-2.898438 3.414063-4.4375l4.09375-3.070313 1.535156-1.023437c1.707031-1.195313 3.414063-2.390626 5.207031-3.5.097656-.105469.210938-.191407.339844-.253907 8.488281-5.648437 17.558594-10.367187 27.050781-14.082031 2.816407-1.109375 5.632813-2.132812 8.535157-2.984375 2.730468-.855469 5.375-1.625 8.191406-2.21875 1.449218-.34375 2.816406-.683594 4.265625-.941406 1.535156.257812 3.074219.597656 4.609375.941406 9.222656 2.03125 18.164062 5.183594 26.625 9.386719 1.875.9375 3.753906 1.875 5.546875 2.8125v.085937c.679687.320313 1.335937.691407 1.960937 1.109375 2.902344 1.621094 5.71875 3.328125 8.535156 5.121094 22.945313 15.027344 43.148438 33.875 59.730469 55.722656zm0 0" fill="#008a00"/><path d="m256 264.539062c-3.457031-.007812-6.570312-2.09375-7.898438-5.285156-1.328124-3.191406-.609374-6.867187 1.824219-9.324218.539063-.542969 1.152344-1.011719 1.816407-1.390626 16.714843-12.941406 31.6875-27.988281 44.542968-44.769531l3.832032-5.257812c8.617187-11.804688 15.285156-24.914063 19.742187-38.832031 2.886719-8.851563 4.371094-18.097657 4.40625-27.410157.023437-2.808593-.148437-5.613281-.511719-8.398437-.125-1.359375-.253906-2.191406-.382812-2.96875-1.871094-13.03125-6.0625-25.628906-12.371094-37.1875-.257812-.355469-.488281-.730469-.683594-1.125-.136718-.300782-.289062-.597656-.457031-.882813-.101563-.15625-.402344-.617187-.492187-.773437-13.894532-23.605469-31.976563-44.476563-53.359376-61.597656-21.378906 17.125-39.464843 37.996093-53.375 61.59375-.160156.273437-.324218.550781-.511718.808593-.164063.273438-.308594.558594-.441406.851563-.199219.402344-.429688.789062-.691407 1.152344-6.261719 11.445312-10.429687 23.917968-12.308593 36.832031-.171876 1.109375-.308594 1.941406-.375 2.785156-.394532 2.953125-.585938 5.929687-.570313 8.910156.03125 9.257813 1.503906 18.453125 4.367187 27.257813 4.664063 14.464844 11.640626 28.078125 20.65625 40.308594l2.96875 3.953124c2.699219 3.773438 1.890626 9.011719-1.824218 11.792969-3.710938 2.785157-8.96875 2.089844-11.832032-1.5625l-3.074218-4.09375c-10.128906-13.742187-17.957032-29.035156-23.183594-45.285156-3.382812-10.457031-5.121094-21.378906-5.144531-32.371094-.019531-3.582031.207031-7.164062.679687-10.714843.09375-1.179688.25-2.355469.46875-3.519532 2.210938-15.203125 7.167969-29.878906 14.636719-43.304687.15625-.289063.332031-.570313.515625-.84375.285156-.523438.585938-1.042969.902344-1.535157 16.203125-27.492187 37.65625-51.527343 63.136718-70.738281 2.980469-2.152343 7.003907-2.152343 9.984376 0 25.480468 19.210938 46.933593 43.25 63.140624 70.742188.316407.488281.617188 1.015625.910157 1.550781.183593.265625.347656.539062.511719.824219 7.511718 13.53125 12.484374 28.320312 14.683593 43.640625.222657 1.222656.378907 2.457031.472657 3.699218.441406 3.382813.648437 6.789063.621093 10.199219-.03125 11.03125-1.777343 21.984375-5.183593 32.476563-4.953126 15.5625-12.371094 30.230468-21.972657 43.441406l-4.25 5.832031c-14.019531 18.441407-30.480469 34.890625-48.925781 48.898438-1.453125 1.050781-3.203125 1.617187-5 1.621093zm0 0"/><path d="m256 512.003906c-1.789062.003906-3.535156-.558594-4.984375-1.609375-26.054687-19.613281-47.890625-44.269531-64.207031-72.507812-.125-.199219-.242188-.398438-.359375-.597657-8.125-14.558593-13.269531-30.589843-15.140625-47.15625-.449219-3.445312-.664063-6.917968-.640625-10.394531 0-26.71875 10.574219-54.234375 31.433593-81.785156 14.011719-18.425781 30.460938-34.863281 48.898438-48.859375 3.820312-2.761719 9.15625-1.90625 11.917969 1.914062 2.757812 3.820313 1.902343 9.15625-1.917969 11.917969-17.027344 13.039063-32.253906 28.277344-45.285156 45.316407-16.902344 20.125-26.734375 45.242187-27.980469 71.496093-.019531 2.808594.152344 5.613281.515625 8.398438 1.59375 14.136719 5.949219 27.824219 12.816406 40.285156.320313.453125.59375.941406.816406 1.449219 13.988282 24.105468 32.335938 45.402344 54.109376 62.800781 21.839843-17.457031 40.234374-38.832031 54.25-63.027344.183593-.386719.394531-.761719.632812-1.121093 6.855469-12.386719 11.214844-25.996094 12.832031-40.058594.390625-2.894532.574219-5.808594.558594-8.726563-1.246094-26.246093-11.070313-51.359375-27.964844-71.484375-2.683593-3.757812-1.886719-8.96875 1.792969-11.757812 3.683594-2.789063 8.914062-2.140625 11.804688 1.457031 20.859374 27.550781 31.433593 55.066406 31.433593 81.785156.019531 3.582031-.207031 7.164063-.679687 10.714844-1.890625 16.457031-7.023438 32.375-15.105469 46.832031-.117187.210938-.242187.410156-.367187.609375-16.316407 28.230469-38.148438 52.890625-64.199219 72.5-1.449219 1.050781-3.191407 1.613281-4.980469 1.609375zm0 0"/><path d="m132.265625 341.335938c-3.582031.019531-7.164063-.207032-10.714844-.679688-.777343-.042969-1.976562-.21875-3.257812-.429688-15.308594-2.175781-30.082031-7.152343-43.585938-14.683593-.226562-.121094-.445312-.253907-.65625-.398438l-1.476562-.800781c-27.582031-16.257812-51.695313-37.78125-70.964844-63.347656-2.144531-2.984375-2.144531-7 0-9.984375 19.210937-25.480469 43.25-46.933594 70.742187-63.140625.488282-.316406 1.015626-.617188 1.546876-.910156.257812-.167969.527343-.339844.808593-.5 13.53125-7.535157 28.332031-12.519532 43.667969-14.699219 1.199219-.191407 2.398438-.367188 3.691406-.464844 3.382813-.441406 6.789063-.652344 10.199219-.625 11.03125.03125 21.984375 1.777344 32.476563 5.183594 16.152343 5.199219 31.359374 12.976562 45.023437 23.039062l4.25 3.183594c18.34375 13.953125 34.71875 30.320313 48.683594 48.65625 2.609375 3.40625 2.304687 8.210937-.707031 11.257813-1.585938 1.609374-3.746094 2.519531-6.003907 2.527343-2.257812.007813-4.425781-.886719-6.023437-2.484375-.328125-.328125-.632813-.679687-.914063-1.050781-13.023437-17.027344-28.25-32.25-45.285156-45.265625l-4.085937-3.0625c-12.160157-8.949219-25.683594-15.878906-40.050782-20.519531-8.835937-2.878907-18.066406-4.363281-27.363281-4.398438-2.808594-.019531-5.613281.152344-8.398437.515625-1.332032.125-2.101563.25-2.910157.375-13.054687 1.839844-25.667969 6.03125-37.230469 12.367188-.363281.261718-.746093.492187-1.144531.691406-.300781.136719-.597656.289062-.882812.457031-.15625.101563-.617188.402344-.773438.492188-23.605469 13.894531-44.476562 31.976562-61.59375 53.359375 17.136719 21.394531 38.007813 39.511718 61.601563 53.464844l1.457031.800781c.382813.183593.75.390625 1.101563.625 11.5 6.351562 24.058593 10.558593 37.066406 12.425781 1.207031.191406 1.976562.316406 2.792968.382812 12.1875 1.472657 24.554688.179688 36.171876-3.792968 13.914062-4.433594 27.023437-11.074219 38.828124-19.671875l5.433594-3.953125c3.773438-2.699219 9.011719-1.890625 11.796875 1.824218 2.78125 3.710938 2.085938 8.96875-1.5625 11.832032l-5.992187 4.355468c-13.210938 9.585938-27.875 16.984376-43.4375 21.910157-10.441406 3.378906-21.347656 5.113281-32.324219 5.136719zm0 0"/><path d="m379.734375 341.335938c-11.03125-.027344-21.984375-1.777344-32.476563-5.183594-15.5625-4.953125-30.230468-12.371094-43.441406-21.972656l-5.832031-4.25c-18.167969-13.90625-34.449219-30.117188-48.433594-48.226563-1.242187-1.621094-1.964843-3.578125-2.085937-5.613281-.011719-3.820313 2.511718-7.1875 6.183594-8.242188 3.671874-1.058594 7.597656.449219 9.617187 3.691406 13.003906 16.789063 28.117187 31.828126 44.96875 44.75l5.257813 3.832032c11.804687 8.617187 24.914062 15.28125 38.832031 19.742187 8.851562 2.886719 18.097656 4.371094 27.410156 4.40625 2.808594.023438 5.613281-.148437 8.398437-.511719 1.359376-.125 2.191407-.253906 2.964844-.382812 13.085938-1.878906 25.722656-6.089844 37.320313-12.433594.445312-.308594.917969-.578125 1.414062-.800781l.449219-.25.785156-.425781c23.601563-13.9375 44.472656-32.050782 61.601563-53.449219-17.125-21.378906-37.996094-39.464844-61.59375-53.375-.273438-.160156-.550781-.324219-.808594-.511719-.273437-.164062-.558594-.308594-.851563-.441406-.402343-.199219-.789062-.429688-1.152343-.691406-11.445313-6.261719-23.917969-10.429688-36.832031-12.308594-1.109376-.171875-1.941407-.308594-2.785157-.375-12.1875-1.460938-24.550781-.164062-36.171875 3.792969-13.914062 4.433593-27.023437 11.074219-38.828125 19.671875l-5.433593 3.953125c-3.773438 2.699219-9.011719 1.890625-11.796876-1.820313-2.78125-3.714844-2.085937-8.972656 1.5625-11.835937l5.992188-4.355469c13.210938-9.585938 27.875-16.984375 43.4375-21.910156 10.441406-3.378906 21.347656-5.113282 32.328125-5.136719 3.582031-.019531 7.164063.207031 10.714844.679687 1.179687.09375 2.355469.25 3.515625.46875 15.207031 2.210938 29.882812 7.167969 43.308594 14.636719.289062.160157.570312.332031.84375.515625.523437.285156 1.042968.585938 1.535156.902344 27.492187 16.203125 51.527344 37.660156 70.742187 63.140625 2.140625 2.984375 2.140625 7 0 9.984375-19.296875 25.59375-43.441406 47.136719-71.058593 63.402344l-1.007813.550781c-.125.066406-.25.140625-.390625.207031-.210938.140625-.433594.273438-.660156.402344-13.53125 7.511719-28.320313 12.484375-43.640625 14.683594-1.226563.222656-2.460938.378906-3.699219.472656-3.382812.4375-6.792969.644531-10.203125.617188zm0 0"/><path d="m194.046875 441.8125c-1.179687.003906-2.347656-.238281-3.433594-.707031-55.914062-19.949219-99.898437-63.980469-119.785156-119.917969-1.070313-2.625-.769531-5.609375.800781-7.964844 1.574219-2.359375 4.214844-3.78125 7.046875-3.800781 3.878907 0 7.28125 2.582031 8.328125 6.316406 18.222656 51.050781 58.433594 91.203125 109.515625 109.347657 4.050781 1.230468 6.59375 5.238281 5.976563 9.429687-.617188 4.1875-4.210938 7.292969-8.445313 7.296875zm0 0"/><path d="m433.238281 202.546875c-3.875.011719-7.269531-2.59375-8.257812-6.34375-18.238281-51.035156-58.453125-91.167969-109.527344-109.300781-4.015625-1.25-6.523437-5.242188-5.898437-9.402344.625-4.164062 4.191406-7.246094 8.398437-7.261719h.085937c.957032-.003906 1.90625.15625 2.808594.472657 56.28125 19.894531 100.554688 64.167968 120.445313 120.453124.316406.902344.476562 1.851563.472656 2.808594.007813 4.71875-3.808594 8.554688-8.527344 8.574219zm0 0"/><path d="m317.953125 441.8125c-2.257813.011719-4.429687-.875-6.03125-2.46875-1.601563-1.589844-2.503906-3.757812-2.503906-6.015625 0-3.875 2.582031-7.277344 6.316406-8.324219 51.050781-18.222656 91.203125-58.4375 109.347656-109.515625.925781-3.03125 3.453125-5.300781 6.566407-5.898437 3.113281-.597656 6.300781.578125 8.28125 3.050781 1.980468 2.472656 2.433593 5.839844 1.171874 8.746094-19.949218 55.917969-63.980468 99.902343-119.917968 119.789062-1.027344.421875-2.125.636719-3.230469.636719zm0 0"/><path d="m78.765625 202.546875c-2.257813.011719-4.429687-.878906-6.03125-2.472656s-2.5-3.761719-2.5-6.019531c-.003906-.984376.15625-1.960938.472656-2.890626 19.894531-56.285156 64.167969-100.558593 120.453125-120.453124 2.609375-.828126 5.460938-.386719 7.695313 1.199218 2.238281 1.582032 3.601562 4.121094 3.6875 6.859375.011719 3.875-2.59375 7.269531-6.34375 8.257813-51.035157 18.238281-91.167969 58.453125-109.300781 109.527344-1.113282 3.554687-4.40625 5.980468-8.132813 5.992187zm0 0"/><path d="m179.792969 397.828125c-1.480469 0-2.933594-.382813-4.21875-1.117187-25.132813-14.328126-45.957031-35.148438-60.28125-60.28125-1.511719-2.652344-1.492188-5.90625.046875-8.535157 1.542968-2.632812 4.367187-4.242187 7.417968-4.226562 3.050782.019531 5.859376 1.664062 7.367188 4.3125 12.808594 22.472656 31.425781 41.089843 53.898438 53.898437 3.367187 1.917969 5.023437 5.863282 4.027343 9.605469-.992187 3.746094-4.386719 6.351563-8.257812 6.34375zm0 0"/><path d="m389.300781 188.335938c-3.070312 0-5.90625-1.644532-7.425781-4.308594-12.808594-22.476563-31.425781-41.09375-53.898438-53.902344-2.648437-1.507812-4.292968-4.316406-4.3125-7.367188-.015624-3.046874 1.59375-5.875 4.226563-7.414062 2.628906-1.539062 5.882813-1.558594 8.535156-.050781 25.132813 14.328125 45.953125 35.148437 60.28125 60.285156 1.503907 2.640625 1.492188 5.878906-.035156 8.507813-1.523437 2.628906-4.332031 4.246093-7.371094 4.25zm0 0"/><path d="m332.207031 397.828125c-3.871093.003906-7.265625-2.601563-8.257812-6.34375-.996094-3.746094.660156-7.691406 4.027343-9.605469 22.472657-12.808594 41.089844-31.425781 53.898438-53.902344 2.332031-4.09375 7.542969-5.523437 11.640625-3.191406 4.097656 2.332032 5.527344 7.546875 3.191406 11.640625-14.324219 25.136719-35.148437 45.957031-60.28125 60.285157-1.285156.730468-2.738281 1.117187-4.21875 1.117187zm0 0"/><path d="m122.699219 188.335938c-3.039063-.003907-5.847657-1.621094-7.375-4.25-1.523438-2.628907-1.539063-5.867188-.03125-8.507813 14.324219-25.136719 35.148437-45.957031 60.28125-60.285156 4.097656-2.332031 9.308593-.902344 11.640625 3.191406 2.332031 4.097656.902344 9.308594-3.191406 11.640625-22.476563 12.808594-41.09375 31.425781-53.902344 53.902344-1.519532 2.664062-4.351563 4.308594-7.421875 4.308594zm0 0"/><path d="m230.398438 85.335938h-35.242188c-4.710938 0-8.53125-3.820313-8.53125-8.53125 0-4.714844 3.820312-8.535157 8.53125-8.535157h35.242188c4.714843 0 8.535156 3.820313 8.535156 8.535157 0 4.710937-3.820313 8.53125-8.535156 8.53125zm0 0"/><path d="m316.84375 85.335938h-35.242188c-4.714843 0-8.535156-3.820313-8.535156-8.53125 0-4.714844 3.820313-8.535157 8.535156-8.535157h35.242188c4.710938 0 8.53125 3.820313 8.53125 8.535157 0 4.710937-3.820312 8.53125-8.53125 8.53125zm0 0"/><path d="m230.398438 128.003906h-50.175782c-4.710937 0-8.53125-3.820312-8.53125-8.535156 0-4.710938 3.820313-8.53125 8.53125-8.53125h50.175782c4.714843 0 8.535156 3.820312 8.535156 8.53125 0 4.714844-3.820313 8.535156-8.535156 8.535156zm0 0"/><path d="m331.777344 128.003906h-50.175782c-4.714843 0-8.535156-3.820312-8.535156-8.535156 0-4.710938 3.820313-8.53125 8.535156-8.53125h50.175782c4.710937 0 8.53125 3.820312 8.53125 8.53125 0 4.714844-3.820313 8.535156-8.53125 8.535156zm0 0"/><path d="m230.398438 170.671875h-46.421876c-4.710937 0-8.53125-3.820313-8.53125-8.535156 0-4.710938 3.820313-8.53125 8.53125-8.53125h46.421876c4.714843 0 8.535156 3.820312 8.535156 8.53125 0 4.714843-3.820313 8.535156-8.535156 8.535156zm0 0"/><path d="m328.019531 170.671875h-46.417969c-4.714843 0-8.535156-3.820313-8.535156-8.535156 0-4.710938 3.820313-8.53125 8.535156-8.53125h46.417969c4.714844 0 8.535157 3.820312 8.535157 8.53125 0 4.714843-3.820313 8.535156-8.535157 8.535156zm0 0"/><path d="m230.398438 213.335938h-24.574219c-4.714844 0-8.535157-3.820313-8.535157-8.53125 0-4.714844 3.820313-8.535157 8.535157-8.535157h24.574219c4.714843 0 8.535156 3.820313 8.535156 8.535157 0 4.710937-3.820313 8.53125-8.535156 8.53125zm0 0"/><path d="m306.175781 213.335938h-24.574219c-4.714843 0-8.535156-3.820313-8.535156-8.53125 0-4.714844 3.820313-8.535157 8.535156-8.535157h24.574219c4.714844 0 8.535157 3.820313 8.535157 8.535157 0 4.710937-3.820313 8.53125-8.535157 8.53125zm0 0"/><path d="m435.199219 238.9375c-4.710938 0-8.53125-3.820312-8.53125-8.535156v-35.242188c0-4.710937 3.820312-8.53125 8.53125-8.53125 4.714843 0 8.535156 3.820313 8.535156 8.53125v35.242188c0 4.714844-3.820313 8.535156-8.535156 8.535156zm0 0"/><path d="m435.199219 325.464844c-2.261719 0-4.433594-.898438-6.035157-2.496094-1.601562-1.601562-2.5-3.773438-2.496093-6.035156v-35.328125c0-4.714844 3.820312-8.535157 8.53125-8.535157 4.714843 0 8.535156 3.820313 8.535156 8.535157v35.328125c0 2.261718-.898437 4.433594-2.5 6.035156-1.601563 1.597656-3.769531 2.496094-6.035156 2.496094zm0 0"/><path d="m392.53125 238.9375c-4.710938 0-8.53125-3.820312-8.53125-8.535156v-50.175782c0-4.710937 3.820312-8.53125 8.53125-8.53125 4.714844 0 8.535156 3.820313 8.535156 8.53125v50.175782c0 4.714844-3.820312 8.535156-8.535156 8.535156zm0 0"/><path d="m392.53125 340.3125c-4.710938 0-8.53125-3.820312-8.53125-8.53125v-50.175781c0-4.714844 3.820312-8.535157 8.53125-8.535157 4.714844 0 8.535156 3.820313 8.535156 8.535157v50.175781c0 4.710938-3.820312 8.53125-8.535156 8.53125zm0 0"/><path d="m349.867188 238.9375c-4.714844 0-8.535157-3.820312-8.535157-8.535156v-46.417969c0-4.714844 3.820313-8.535156 8.535157-8.535156 4.710937 0 8.53125 3.820312 8.53125 8.535156v46.417969c0 4.714844-3.820313 8.535156-8.53125 8.535156zm0 0"/><path d="m349.867188 336.558594c-2.265626 0-4.4375-.898438-6.035157-2.496094-1.601562-1.601562-2.5-3.773438-2.5-6.039062v-46.417969c0-4.714844 3.820313-8.535157 8.535157-8.535157 4.710937 0 8.53125 3.820313 8.53125 8.535157v46.417969c.003906 2.265624-.894532 4.4375-2.496094 6.039062-1.601563 1.597656-3.773438 2.496094-6.035156 2.496094zm0 0"/><path d="m307.199219 238.9375c-4.710938 0-8.53125-3.820312-8.53125-8.535156v-24.574219c0-4.714844 3.820312-8.535156 8.53125-8.535156 4.714843 0 8.535156 3.820312 8.535156 8.535156v24.574219c0 4.714844-3.820313 8.535156-8.535156 8.535156zm0 0"/><path d="m307.199219 314.714844c-4.710938 0-8.53125-3.820313-8.53125-8.535156v-24.574219c0-4.714844 3.820312-8.535157 8.53125-8.535157 4.714843 0 8.535156 3.820313 8.535156 8.535157v24.574219c0 4.714843-3.820313 8.535156-8.535156 8.535156zm0 0"/><path d="m316.929688 443.738281h-35.328126c-4.714843 0-8.535156-3.820312-8.535156-8.535156 0-4.710937 3.820313-8.53125 8.535156-8.53125h35.328126c4.710937 0 8.53125 3.820313 8.53125 8.53125 0 4.714844-3.820313 8.535156-8.53125 8.535156zm0 0"/><path d="m230.398438 443.738281h-35.328126c-4.710937 0-8.53125-3.820312-8.53125-8.535156 0-4.710937 3.820313-8.53125 8.53125-8.53125h35.328126c4.714843 0 8.535156 3.820313 8.535156 8.53125 0 4.714844-3.820313 8.535156-8.535156 8.535156zm0 0"/><path d="m331.777344 401.070312h-50.175782c-4.714843 0-8.535156-3.820312-8.535156-8.53125 0-4.714843 3.820313-8.535156 8.535156-8.535156h50.175782c4.710937 0 8.53125 3.820313 8.53125 8.535156 0 4.710938-3.820313 8.53125-8.53125 8.53125zm0 0"/><path d="m230.398438 401.070312h-50.175782c-4.710937 0-8.53125-3.820312-8.53125-8.53125 0-4.714843 3.820313-8.535156 8.53125-8.535156h50.175782c4.714843 0 8.535156 3.820313 8.535156 8.535156 0 4.710938-3.820313 8.53125-8.535156 8.53125zm0 0"/><path d="m328.019531 358.402344h-46.417969c-4.714843 0-8.535156-3.820313-8.535156-8.53125 0-4.714844 3.820313-8.535156 8.535156-8.535156h46.417969c4.714844 0 8.535157 3.820312 8.535157 8.535156 0 4.710937-3.820313 8.53125-8.535157 8.53125zm0 0"/><path d="m230.398438 358.402344h-46.421876c-4.710937 0-8.53125-3.820313-8.53125-8.53125 0-4.714844 3.820313-8.535156 8.53125-8.535156h46.421876c4.714843 0 8.535156 3.820312 8.535156 8.535156 0 4.710937-3.820313 8.53125-8.535156 8.53125zm0 0"/><path d="m306.175781 315.738281h-24.574219c-4.714843 0-8.535156-3.820312-8.535156-8.535156 0-4.710937 3.820313-8.53125 8.535156-8.53125h24.574219c4.714844 0 8.535157 3.820313 8.535157 8.53125 0 4.714844-3.820313 8.535156-8.535157 8.535156zm0 0"/><path d="m230.398438 315.738281h-24.574219c-4.714844 0-8.535157-3.820312-8.535157-8.535156 0-4.710937 3.820313-8.53125 8.535157-8.53125h24.574219c4.714843 0 8.535156 3.820313 8.535156 8.53125 0 4.714844-3.820313 8.535156-8.535156 8.535156zm0 0"/><path d="m76.800781 325.464844c-2.265625 0-4.4375-.898438-6.035156-2.496094-1.601563-1.601562-2.5-3.773438-2.5-6.035156v-35.328125c0-4.714844 3.820313-8.535157 8.535156-8.535157 4.710938 0 8.53125 3.820313 8.53125 8.535157v35.328125c.003907 2.261718-.894531 4.433594-2.496093 6.035156-1.601563 1.597656-3.773438 2.496094-6.035157 2.496094zm0 0"/><path d="m76.800781 238.9375c-4.714843 0-8.535156-3.820312-8.535156-8.535156v-35.242188c0-4.710937 3.820313-8.53125 8.535156-8.53125 4.710938 0 8.53125 3.820313 8.53125 8.53125v35.242188c0 4.714844-3.820312 8.535156-8.53125 8.535156zm0 0"/><path d="m119.464844 340.3125c-4.710938 0-8.53125-3.820312-8.53125-8.53125v-50.175781c0-4.714844 3.820312-8.535157 8.53125-8.535157 4.714844 0 8.535156 3.820313 8.535156 8.535157v50.175781c0 4.710938-3.820312 8.53125-8.535156 8.53125zm0 0"/><path d="m119.464844 238.9375c-4.710938 0-8.53125-3.820312-8.53125-8.535156v-50.175782c0-4.710937 3.820312-8.53125 8.53125-8.53125 4.714844 0 8.535156 3.820313 8.535156 8.53125v50.175782c0 4.714844-3.820312 8.535156-8.535156 8.535156zm0 0"/><path d="m162.132812 336.558594c-2.261718 0-4.433593-.898438-6.035156-2.496094-1.601562-1.601562-2.5-3.773438-2.496094-6.039062v-46.417969c0-4.714844 3.820313-8.535157 8.53125-8.535157 4.714844 0 8.535157 3.820313 8.535157 8.535157v46.417969c0 2.265624-.898438 4.4375-2.5 6.039062-1.601563 1.597656-3.769531 2.496094-6.035157 2.496094zm0 0"/><path d="m162.132812 238.9375c-4.710937 0-8.53125-3.820312-8.53125-8.535156v-46.417969c0-4.714844 3.820313-8.535156 8.53125-8.535156 4.714844 0 8.535157 3.820312 8.535157 8.535156v46.417969c0 4.714844-3.820313 8.535156-8.535157 8.535156zm0 0"/><path d="m204.800781 314.714844c-4.714843 0-8.535156-3.820313-8.535156-8.535156v-24.574219c0-4.714844 3.820313-8.535157 8.535156-8.535157 4.710938 0 8.53125 3.820313 8.53125 8.535157v24.574219c0 4.714843-3.820312 8.535156-8.53125 8.535156zm0 0"/><path d="m204.800781 238.9375c-4.714843 0-8.535156-3.820312-8.535156-8.535156v-24.574219c0-4.714844 3.820313-8.535156 8.535156-8.535156 4.710938 0 8.53125 3.820312 8.53125 8.535156v24.574219c0 4.714844-3.820312 8.535156-8.53125 8.535156zm0 0"/></svg>