<svg height="511pt" viewBox="-33 0 511 511.82152" width="511pt" xmlns="http://www.w3.org/2000/svg"><path d="m385.386719 255.820312c-.019531 89.535157-72.597657 162.113282-162.132813 162.132813-4.265625 0-8.617187-.167969-12.800781-.511719-84.316406-6.671875-149.335937-77.039062-149.335937-161.621094 0-84.578124 65.019531-154.949218 149.335937-161.621093 4.183594-.339844 8.535156-.511719 12.800781-.511719 89.535156.019531 162.113282 72.597656 162.132813 162.132812zm0 0" fill="#825a2c"/><path d="m359.789062 255.820312c0-89.261718-66.859374-161.621093-149.335937-161.621093-82.472656 0-149.332031 72.359375-149.332031 161.621093 0 89.261719 66.859375 161.621094 149.332031 161.621094 82.476563 0 149.335937-72.359375 149.335937-161.621094zm0 0" fill="#825a2c"/><path d="m377.023438 377.675781c-30.949219 39.171875-75.703126 65.03125-125.097657 72.277344l1.707031-6.058594 8.960938-30.804687c27.019531-6.703125 51.816406-20.351563 71.933594-39.59375 1.820312-1.589844 3.558594-3.269532 5.207031-5.035156zm0 0" fill="#f57c00"/><path d="m377.023438 133.964844-37.289063 9.214844c-1.648437-1.761719-3.386719-3.441407-5.207031-5.03125-20.117188-19.242188-44.914063-32.894532-71.933594-39.597657l-8.960938-30.804687-1.707031-6.058594c49.394531 7.25 94.148438 33.105469 125.097657 72.277344zm0 0" fill="#f57c00"/><path d="m67.433594 211.277344c-8.417969 29.097656-8.417969 59.988281 0 89.089844l-26.621094 27.730468c-18.433594-46.421875-18.433594-98.132812 0-144.554687zm0 0" fill="#ff9801"/><path d="m106.773438 143.179688c20.992187-21.847657 47.734374-37.320313 77.140624-44.628907l10.667969-36.863281c-49.394531 7.25-94.148437 33.105469-125.097656 72.277344zm0 0" fill="#ff9801"/><path d="m379.074219 211.277344c8.417969 29.097656 8.417969 59.988281 0 89.089844l26.621093 27.730468c18.433594-46.421875 18.433594-98.132812 0-144.554687zm0 0" fill="#f57c00"/><g fill="#ff9801"><path d="m351.425781 377.675781c-24.996093 31.625-59.152343 54.75-97.792969 66.21875l8.960938-30.804687c27.019531-6.703125 51.816406-20.351563 71.933594-39.59375zm0 0"/><path d="m351.425781 133.964844-16.898437 4.183594c-20.117188-19.242188-44.914063-32.894532-71.933594-39.597657l-8.960938-30.804687c38.640626 11.46875 72.796876 34.597656 97.792969 66.21875zm0 0"/><path d="m106.773438 368.460938c20.992187 21.851562 47.734374 37.324218 77.140624 44.628906l10.667969 36.863281c-49.394531-7.246094-94.148437-33.105469-125.097656-72.277344zm0 0"/></g><path d="m265.921875 132.089844c0 68.351562-42.667969 123.730468-42.667969 123.730468-4.679687-6.382812-8.953125-13.050781-12.800781-19.964843-18.582031-31.503907-28.859375-67.207031-29.867187-103.765625 1.007812-36.5625 11.285156-72.265625 29.867187-103.765625 3.847656-6.917969 8.121094-13.585938 12.800781-19.96875 0 0 42.667969 55.378906 42.667969 123.734375zm0 0" fill="#90ac00"/><path d="m137.429688 157.003906c59.183593 34.167969 85.824218 98.816406 85.824218 98.816406s-69.308594 9.253907-128.488281-24.917968c-59.183594-34.167969-85.824219-98.8125-85.824219-98.8125s69.308594-9.253906 128.488282 24.914062zm0 0" fill="#008a00"/><path d="m94.765625 280.738281c59.179687-34.167969 128.488281-24.917969 128.488281-24.917969s-26.640625 64.652344-85.824218 98.816407c-59.179688 34.167969-128.488282 24.917969-128.488282 24.917969s26.640625-64.648438 85.824219-98.816407zm0 0" fill="#a4c400"/><path d="m265.921875 379.554688c0 68.351562-42.667969 123.734374-42.667969 123.734374-4.679687-6.382812-8.953125-13.054687-12.800781-19.96875-18.582031-31.5-28.859375-67.207031-29.867187-103.765624 1.007812-36.558594 11.285156-72.265626 29.867187-103.765626 3.847656-6.914062 8.121094-13.585937 12.800781-19.96875 0 0 42.667969 55.382813 42.667969 123.734376zm0 0" fill="#007900"/><path d="m437.527344 379.554688c-11.535156 1.234374-23.152344 1.492187-34.730469.769531h-.257813c-32.722656-1.164063-64.722656-9.957031-93.441406-25.6875-59.21875-34.132813-85.84375-98.816407-85.84375-98.816407s3.328125-.425781 9.128906-.765624h.257813c41.320313-2.640626 82.5625 6.25 119.125 25.683593 59.136719 34.132813 85.761719 98.816407 85.761719 98.816407zm0 0" fill="#90ac00"/><path d="m437.527344 132.089844s-26.625 64.679687-85.761719 98.8125c-36.5625 19.4375-77.804687 28.328125-119.125 25.6875h-.257813c-5.800781-.339844-9.128906-.769532-9.128906-.769532s26.625-64.679687 85.84375-98.816406c28.71875-15.726562 60.71875-24.523437 93.441406-25.683594h.257813c11.578125-.722656 23.195313-.464843 34.730469.769532zm0 0" fill="#007900"/><path d="m240.320312 132.089844c0-57.308594-13.371093-103.765625-29.867187-103.765625-16.492187 0-29.867187 46.457031-29.867187 103.765625 0 57.304687 13.375 103.765625 29.867187 103.765625 16.496094 0 29.867187-46.460938 29.867187-103.765625zm0 0" fill="#a4c400"/><path d="m240.320312 379.554688c0-57.308594-13.371093-103.765626-29.867187-103.765626-16.492187 0-29.867187 46.457032-29.867187 103.765626 0 57.308593 13.375 103.765624 29.867187 103.765624 16.496094 0 29.867187-46.457031 29.867187-103.765624zm0 0" fill="#008a00"/><path d="m411.925781 379.554688s-3.328125.425781-9.128906.769531h-.257813c-32.722656-1.164063-64.722656-9.957031-93.441406-25.6875-59.21875-34.132813-85.84375-98.816407-85.84375-98.816407s3.328125-.425781 9.128906-.765624h.257813c32.75 1.160156 64.777344 9.953124 93.527344 25.683593 59.132812 34.132813 85.757812 98.816407 85.757812 98.816407zm0 0" fill="#a4c400"/><path d="m411.925781 132.089844s-26.625 64.679687-85.757812 98.8125c-28.75 15.730468-60.777344 24.527344-93.527344 25.6875h-.257813c-5.800781-.339844-9.128906-.769532-9.128906-.769532s26.625-64.679687 85.84375-98.816406c28.71875-15.726562 60.71875-24.523437 93.441406-25.683594h.257813c5.800781.339844 9.128906.769532 9.128906.769532zm0 0" fill="#008a00"/><path d="m223.253906 264.355469c-2.648437 0-5.144531-1.230469-6.757812-3.328125-1.816406-2.355469-44.441406-58.515625-44.441406-128.9375 0-70.425782 42.625-126.585938 44.441406-128.941406 1.675781-1.996094 4.152344-3.148438 6.757812-3.148438 2.609375 0 5.082032 1.152344 6.757813 3.148438 1.816406 2.355468 44.441406 58.515624 44.441406 128.941406 0 70.421875-42.625 126.582031-44.441406 128.9375-1.613281 2.097656-4.109375 3.328125-6.757813 3.328125zm.007813-240.816407c-20.953125 32.445313-32.75 69.949219-34.140625 108.550782 1.351562 38.601562 13.144531 76.117187 34.125 108.546875 20.953125-32.445313 32.75-69.949219 34.140625-108.546875-1.351563-38.605469-13.144531-76.117188-34.125-108.550782zm0 0"/><path d="m200.710938 265.550781c-38.464844.496094-76.414063-8.886719-110.214844-27.25-60.992188-35.222656-88.308594-100.210937-89.441406-102.960937-1.007813-2.449219-.824219-5.226563.5-7.519532 1.328124-2.292968 3.640624-3.839843 6.265624-4.191406 2.933594-.398437 72.882813-9.230468 133.875 25.984375 61 35.21875 88.320313 100.207031 89.449219 102.957031 1.007813 2.449219.824219 5.226563-.5 7.519532-1.328125 2.292968-3.640625 3.839844-6.265625 4.191406-7.855468.90625-15.757812 1.328125-23.667968 1.269531zm-178.601563-125.859375c17.613281 34.363282 44.191406 63.328125 76.917969 83.824219 34.113281 18.101563 72.488281 26.636719 111.058594 24.707031-17.613282-34.367187-44.191407-63.332031-76.921876-83.828125-34.113281-18.101562-72.484374-26.640625-111.050781-24.707031zm0 0"/><path d="m31.488281 389.28125c-7.910156.0625-15.8125-.359375-23.667969-1.265625-2.625-.347656-4.9375-1.894531-6.265624-4.1875-1.324219-2.292969-1.507813-5.070313-.5-7.519531 1.132812-2.75 28.449218-67.742188 89.441406-102.957032 60.992187-35.210937 130.941406-26.375 133.882812-25.984374 2.625.347656 4.9375 1.894531 6.265625 4.1875 1.324219 2.292968 1.507813 5.070312.5 7.519531-1.132812 2.75-28.449219 67.742187-89.449219 102.960937-33.796874 18.363282-71.746093 27.746094-110.207031 27.246094zm-9.402343-17.320312c38.578124 1.941406 76.960937-6.597657 111.078124-24.710938 32.753907-20.472656 59.347657-49.445312 76.949219-83.828125-38.578125-1.929687-76.960937 6.609375-111.085937 24.707031-32.75 20.476563-59.339844 49.445313-76.941406 83.824219zm0 0"/><path d="m223.253906 511.820312c-2.648437.003907-5.144531-1.226562-6.757812-3.328124-1.816406-2.355469-44.441406-58.511719-44.441406-128.9375 0-70.425782 42.625-126.582032 44.441406-128.9375 1.675781-1.996094 4.152344-3.152344 6.757812-3.152344 2.609375 0 5.082032 1.15625 6.757813 3.152344 1.816406 2.355468 44.441406 58.511718 44.441406 128.9375 0 70.425781-42.625 126.582031-44.441406 128.9375-1.613281 2.101562-4.109375 3.332031-6.757813 3.328124zm.007813-240.816406c-20.953125 32.445313-32.75 69.953125-34.140625 108.550782 1.351562 38.601562 13.144531 76.117187 34.125 108.550781 20.953125-32.445313 32.75-69.953125 34.140625-108.550781-1.351563-38.601563-13.144531-76.117188-34.125-108.550782zm0 0"/><path d="m415.019531 389.28125c-38.460937.5-76.410156-8.882812-110.207031-27.246094-61-35.21875-88.320312-100.210937-89.449219-102.960937-1.007812-2.449219-.824219-5.226563.5-7.519531 1.328125-2.292969 3.640625-3.839844 6.265625-4.1875 2.933594-.402344 72.875-9.234376 133.882813 25.984374 60.992187 35.214844 88.308593 100.207032 89.441406 102.957032 1.007813 2.449218.824219 5.226562-.5 7.519531s-3.640625 3.839844-6.265625 4.1875c-7.855469.90625-15.757812 1.328125-23.667969 1.265625zm-178.601562-125.855469c17.617187 34.363281 44.195312 63.328125 76.925781 83.824219 34.109375 18.105469 72.480469 26.644531 111.050781 24.707031-17.617187-34.363281-44.191406-63.328125-76.917969-83.824219-34.113281-18.097656-72.484374-26.636718-111.054687-24.710937zm0 0"/><path d="m245.796875 265.550781c-7.910156.0625-15.8125-.363281-23.667969-1.269531-2.625-.347656-4.9375-1.894531-6.265625-4.1875-1.324219-2.292969-1.507812-5.070312-.5-7.519531 1.132813-2.75 28.449219-67.742188 89.449219-102.957031 61-35.21875 130.933594-26.375 133.875-25.984376 2.625.347657 4.941406 1.898438 6.265625 4.191407 1.324219 2.289062 1.507813 5.070312.5 7.519531-1.132813 2.746094-28.449219 67.738281-89.441406 102.957031-33.800781 18.367188-71.75 27.75-110.214844 27.25zm-9.402344-17.324219c38.578125 1.9375 76.964844-6.601562 111.085938-24.707031 32.75-20.476562 59.339843-49.445312 76.941406-83.828125-38.578125-1.933594-76.957031 6.605469-111.078125 24.710938-32.753906 20.472656-59.34375 49.4375-76.949219 83.820312zm0 0"/><path d="m251.921875 458.488281c-4.464844-.015625-8.164063-3.46875-8.484375-7.921875-.320312-4.457031 2.847656-8.402344 7.265625-9.054687 47.257813-6.871094 90.078125-31.617188 119.625-69.132813 2.929687-3.695312 8.296875-4.316406 11.992187-1.390625 3.695313 2.925781 4.320313 8.296875 1.390626 11.992188-32.246094 40.9375-78.984376 67.933593-130.558594 75.417969-.40625.0625-.820313.09375-1.230469.089843zm0 0"/><path d="m377.027344 142.5c-2.609375 0-5.074219-1.191406-6.699219-3.234375-29.546875-37.515625-72.367187-62.261719-119.625-69.136719-2.238281-.320312-4.257813-1.523437-5.613281-3.335937-1.351563-1.8125-1.929688-4.089844-1.601563-6.332031.296875-2.25 1.492188-4.285157 3.3125-5.644532 1.820313-1.355468 4.109375-1.921875 6.351563-1.570312 51.578125 7.480468 98.3125 34.476562 130.5625 75.417968 2.03125 2.5625 2.417968 6.066407.996094 9.011719-1.425782 2.945313-4.40625 4.820313-7.679688 4.820313zm0 0"/><path d="m40.8125 336.632812c-3.488281 0-6.625-2.121093-7.925781-5.359374-19.246094-48.457032-19.246094-102.441407 0-150.898438 1.753906-4.378906 6.722656-6.503906 11.097656-4.75 4.378906 1.753906 6.503906 6.722656 4.75 11.097656-17.621094 44.382813-17.621094 93.820313 0 138.203125 1.058594 2.628907.738281 5.613281-.847656 7.957031-1.589844 2.347657-4.242188 3.753907-7.074219 3.75zm0 0"/><path d="m69.484375 142.5c-3.273437-.003906-6.257813-1.875-7.679687-4.824219-1.425782-2.945312-1.035157-6.445312.996093-9.011719 32.25-40.9375 78.984375-67.933593 130.558594-75.414062 4.59375-.546875 8.785156 2.667969 9.449219 7.246094.664062 4.578125-2.4375 8.851562-7 9.636718-47.257813 6.875-90.074219 31.617188-119.625 69.132813-1.621094 2.046875-4.089844 3.234375-6.699219 3.234375zm0 0"/><path d="m405.695312 336.632812c-2.832031.003907-5.484374-1.402343-7.074218-3.75-1.585938-2.34375-1.90625-5.328124-.847656-7.957031 17.621093-44.382812 17.621093-93.820312 0-138.203125-1.753907-4.375.371093-9.34375 4.75-11.097656 4.375-1.753906 9.34375.371094 11.097656 4.75 19.246094 48.457031 19.246094 102.441406 0 150.898438-1.300782 3.238281-4.4375 5.359374-7.925782 5.359374zm0 0"/><path d="m194.585938 458.488281c-.410157.003907-.824219-.027343-1.230469-.089843-51.578125-7.484376-98.3125-34.480469-130.5625-75.417969-2.925781-3.695313-2.304688-9.066407 1.390625-11.992188 3.699218-2.925781 9.066406-2.304687 11.992187 1.390625 29.550781 37.515625 72.367188 62.261719 119.625 69.132813 4.417969.652343 7.585938 4.597656 7.269531 9.054687-.320312 4.453125-4.019531 7.90625-8.484374 7.921875zm0 0"/><path d="m262.585938 421.625c-4.3125-.003906-7.945313-3.222656-8.464844-7.503906-.523438-4.28125 2.230468-8.277344 6.417968-9.3125 27.851563-6.902344 53.175782-21.550782 73.046876-42.25 3.261718-3.402344 8.664062-3.515625 12.066406-.25 3.402344 3.261718 3.511718 8.664062.25 12.066406-22.105469 23.015625-50.273438 39.308594-81.246094 46.992188-.679688.167968-1.371094.253906-2.070312.257812zm0 0"/><path d="m339.734375 151.714844c-2.324219.003906-4.550781-.945313-6.160156-2.625-19.867188-20.699219-45.195313-35.347656-73.042969-42.25-4.574219-1.140625-7.359375-5.769532-6.222656-10.34375 1.140625-4.574219 5.773437-7.359375 10.347656-6.222656 30.972656 7.6875 59.136719 23.980468 81.238281 47 2.367188 2.46875 3.035157 6.113281 1.691407 9.257812s-4.433594 5.183594-7.851563 5.183594zm0 0"/><path d="m67.433594 308.898438c-3.78125 0-7.109375-2.488282-8.183594-6.117188-8.886719-30.671875-8.886719-63.242188 0-93.914062.839844-2.957032 3.199219-5.230469 6.183594-5.960938 2.980468-.730469 6.125.199219 8.234375 2.429688 2.105469 2.234374 2.851562 5.429687 1.949219 8.363281-7.953126 27.519531-7.953126 56.730469 0 84.25 1.335937 4.519531-1.246094 9.265625-5.765626 10.601562-.785156.230469-1.597656.351563-2.417968.347657zm0 0"/><path d="m106.773438 151.714844c-3.417969 0-6.507813-2.039063-7.851563-5.1875-1.339844-3.144532-.675781-6.785156 1.695313-9.253906 22.101562-23.019532 50.265624-39.3125 81.234374-47 2.960938-.734376 6.085938.164062 8.203126 2.359374 2.117187 2.195313 2.902343 5.351563 2.058593 8.28125-.839843 2.933594-3.183593 5.191407-6.144531 5.925782-27.847656 6.902344-53.175781 21.550781-73.042969 42.25-1.605469 1.679687-3.828125 2.625-6.152343 2.625zm0 0"/><path d="m379.074219 308.898438c-.820313.003906-1.632813-.117188-2.417969-.347657-4.519531-1.335937-7.101562-6.082031-5.765625-10.601562 7.953125-27.519531 7.953125-56.730469 0-84.25-.902344-2.933594-.15625-6.128907 1.949219-8.363281 2.109375-2.230469 5.253906-3.160157 8.234375-2.429688 2.984375.730469 5.34375 3.003906 6.183593 5.960938 8.886719 30.671874 8.886719 63.242187 0 93.914062-1.074218 3.628906-4.402343 6.117188-8.183593 6.117188zm0 0"/><path d="m183.921875 421.625c-.699219-.003906-1.390625-.085938-2.066406-.25-30.972657-7.6875-59.136719-23.980469-81.238281-47-3.265626-3.402344-3.152344-8.804688.25-12.066406 3.402343-3.265625 8.804687-3.152344 12.066406.25 19.871094 20.699218 45.195312 35.347656 73.046875 42.25 4.183593 1.035156 6.941406 5.03125 6.417969 9.3125-.519532 4.28125-4.15625 7.5-8.46875 7.503906zm0 0"/></svg>