<svg height="512pt" viewBox="0 0 512 512" width="512pt" xmlns="http://www.w3.org/2000/svg"><path d="m494.34375 26.484375-26.480469 467.859375h-141.242187c-7.027344.011719-13.769532-2.777344-18.738282-7.746094s-7.753906-11.710937-7.746093-18.734375v-229.519531c.011719-7.027344-2.777344-13.765625-7.746094-18.734375s-11.707031-7.757813-18.734375-7.746094h-229.519531c-7.023438.007813-13.765625-2.777343-18.734375-7.746093s-7.757813-11.710938-7.746094-18.738282v-141.242187l467.859375-26.480469c4.871094.011719 8.816406 3.957031 8.828125 8.828125zm0 0" fill="#e57e25"/><path d="m512 8.828125v494.34375c-.015625 4.871094-3.957031 8.8125-8.828125 8.828125h-26.480469c-4.871094-.015625-8.816406-3.957031-8.828125-8.828125v-441.378906c-.03125-9.738281-7.917969-17.625-17.65625-17.65625h-441.378906c-4.871094-.011719-8.8125-3.957031-8.828125-8.828125v-26.480469c.015625-4.871094 3.957031-8.8125 8.828125-8.828125h494.34375c4.871094.015625 8.8125 3.957031 8.828125 8.828125zm0 0" fill="#f29c1f"/><g fill="#fac176"><path d="m70.621094 44.136719h123.585937c9.75 0 17.65625 7.90625 17.65625 17.65625v35.308593c0 9.753907-7.90625 17.65625-17.65625 17.65625h-123.585937c-9.75 0-17.65625-7.902343-17.65625-17.65625v-35.308593c0-9.75 7.90625-17.65625 17.65625-17.65625zm0 0"/><path d="m467.863281 317.792969v123.585937c0 9.75-7.90625 17.65625-17.65625 17.65625h-35.308593c-9.753907 0-17.65625-7.90625-17.65625-17.65625v-123.585937c0-9.75 7.902343-17.65625 17.65625-17.65625h35.308593c9.75 0 17.65625 7.90625 17.65625 17.65625zm0 0"/><path d="m467.863281 62.273438v122.625c-.027343 10.003906-8.132812 18.109374-18.136719 18.136718h-34.351562c-10.003906-.027344-18.105469-8.132812-18.132812-18.136718v-52.003907c0-4.8125-1.910157-9.421875-5.3125-12.824219-3.402344-3.402343-8.011719-5.3125-12.824219-5.3125h-52.003907c-10.003906-.027343-18.109374-8.128906-18.136718-18.132812v-34.351562c.027344-10.003907 8.132812-18.109376 18.136718-18.136719h122.625c10.003907.027343 18.109376 8.132812 18.136719 18.136719zm0 0"/></g><path d="m256 176.550781v35.3125h-17.65625v-35.3125c0-4.875 3.953125-8.828125 8.828125-8.828125s8.828125 3.953125 8.828125 8.828125zm0 0" fill="#d25627"/><path d="m344.277344 264.828125c-.015625 4.867187-3.960938 8.8125-8.828125 8.828125h-35.3125v-17.65625h35.3125c4.867187.015625 8.8125 3.957031 8.828125 8.828125zm0 0" fill="#d25627"/></svg>