<svg height="512pt" viewBox="0 -102 512 512" width="512pt" xmlns="http://www.w3.org/2000/svg"><path d="m256 79.449219v185.378906c.007812 7.027344-2.777344 13.765625-7.746094 18.734375s-11.710937 7.757812-18.738281 7.746094h-132.414063c5.5625-7.324219-8.824218-34.160156-8.824218-44.136719v-158.894531h123.585937c14.652344 0 44.136719 5.824218 44.136719-8.828125zm0 0" fill="#d25627"/><path d="m238.34375 79.449219v185.378906c.746094 13.847656-9.847656 25.6875-23.695312 26.480469h-118.472657c4.972657-7.324219-7.898437-34.160156-7.898437-44.136719v-158.894531h110.574218c13.113282 0 39.492188 5.824218 39.492188-8.828125zm0 0" fill="#e57e25"/><path d="m414.898438 291.308594h-132.414063c-7.027344.011718-13.769531-2.777344-18.738281-7.746094s-7.753906-11.707031-7.746094-18.734375v-185.378906c0 14.652343 29.484375 8.828125 44.136719 8.828125h123.585937v158.894531c0 9.976563-14.386718 36.8125-8.824218 44.136719zm0 0" fill="#d25627"/><path d="m415.824219 291.308594h-118.472657c-13.847656-.792969-24.441406-12.632813-23.695312-26.480469v-185.378906c0 14.652343 26.378906 8.828125 39.492188 8.828125h110.574218v158.894531c0 9.976563-12.871094 36.8125-7.898437 44.136719zm0 0" fill="#e57e25"/><path d="m105.929688 105.929688v158.898437c.039062 9.554687-3.0625 18.859375-8.828126 26.480469-8.34375 11.105468-21.417968 17.644531-35.308593 17.65625h-44.136719c-9.738281-.027344-17.6289062-7.914063-17.65625-17.65625v-238.34375c.0273438-9.738282 7.917969-17.625 17.65625-17.65625h26.480469v44.140625c-.007813 7.027343 2.777343 13.765625 7.746093 18.734375s11.710938 7.757812 18.738282 7.746094zm0 0" fill="#f29c1f"/><path d="m512 52.964844v238.34375c-.027344 9.742187-7.917969 17.628906-17.65625 17.65625h-44.136719c-13.890625-.011719-26.964843-6.550782-35.308593-17.65625-5.765626-7.621094-8.867188-16.925782-8.828126-26.480469v-158.898437h35.308594c7.027344.011718 13.769532-2.777344 18.738282-7.746094s7.753906-11.707032 7.746093-18.734375v-44.140625h26.480469c9.738281.03125 17.628906 7.917968 17.65625 17.65625zm0 0" fill="#f29c1f"/><path d="m256 17.65625v61.792969c.007812 7.027343-2.777344 13.765625-7.746094 18.734375s-11.710937 7.757812-18.738281 7.746094h-158.894531c-7.027344.011718-13.769532-2.777344-18.738282-7.746094s-7.753906-11.707032-7.746093-18.734375v-61.792969c.03125-9.738281 7.917969-17.6289062 17.65625-17.65625h176.550781c9.738281.0273438 17.628906 7.917969 17.65625 17.65625zm0 0" fill="#f18d46"/><path d="m238.34375 17.65625v61.792969c1.125 13.375-8.707031 25.171875-22.066406 26.480469h-132.414063c-13.363281-1.308594-23.191406-13.105469-22.070312-26.480469v-61.792969c-.710938-8.90625 5.824219-16.75 14.714843-17.65625h147.125c8.886719.90625 15.421876 8.75 14.710938 17.65625zm0 0" fill="#fac176"/><path d="m467.863281 17.65625v61.792969c.007813 7.027343-2.777343 13.765625-7.746093 18.734375s-11.710938 7.757812-18.738282 7.746094h-158.894531c-7.027344.011718-13.769531-2.777344-18.738281-7.746094s-7.753906-11.707032-7.746094-18.734375v-61.792969c.027344-9.738281 7.917969-17.6289062 17.65625-17.65625h176.550781c9.738281.0273438 17.625 7.917969 17.65625 17.65625zm0 0" fill="#f18d46"/><path d="m450.207031 17.65625v61.792969c1.121094 13.375-8.707031 25.171875-22.070312 26.480469h-132.414063c-13.359375-1.308594-23.191406-13.105469-22.066406-26.480469v-61.792969c-.710938-8.90625 5.824219-16.75 14.710938-17.65625h147.125c8.890624.90625 15.425781 8.75 14.714843 17.65625zm0 0" fill="#fac176"/><g fill="#fdd7ad"><path d="m35.308594 282.484375c-4.875 0-8.824219-3.953125-8.824219-8.828125v-8.828125c0-4.875 3.949219-8.828125 8.824219-8.828125 4.878906 0 8.828125 3.953125 8.828125 8.828125v8.828125c0 4.875-3.949219 8.828125-8.828125 8.828125zm0 0"/><path d="m35.308594 238.34375c-4.875 0-8.824219-3.949219-8.824219-8.828125v-88.273437c0-4.875 3.949219-8.828126 8.824219-8.828126 4.878906 0 8.828125 3.953126 8.828125 8.828126v88.273437c0 4.878906-3.949219 8.828125-8.828125 8.828125zm0 0"/></g></svg>