<svg height="512pt" viewBox="0 -53 512 512" width="512pt" xmlns="http://www.w3.org/2000/svg"><g fill="#802d40"><path d="m114.757812 26.484375h105.933594v52.964844h-105.933594zm0 0"/><path d="m291.308594 26.484375h105.933594v52.964844h-105.933594zm0 0"/><path d="m397.242188 379.585938h-105.933594v-52.964844h105.933594zm0 0"/><path d="m220.691406 379.585938h-105.933594v-52.964844h105.933594zm0 0"/><path d="m26.484375 256v-105.929688h52.964844v105.929688zm0 0"/><path d="m432.550781 256v-105.929688h52.964844v105.929688zm0 0"/></g><path d="m88.277344 70.621094h335.445312c9.753906 0 17.65625 7.902344 17.65625 17.65625v229.515625c0 9.75-7.902344 17.65625-17.65625 17.65625h-335.445312c-9.753906 0-17.65625-7.90625-17.65625-17.65625v-229.515625c0-9.753906 7.902344-17.65625 17.65625-17.65625zm0 0" fill="#cb8252"/><path d="m114.757812 0h105.933594c9.75 0 17.652344 7.90625 17.652344 17.65625s-7.902344 17.652344-17.652344 17.652344h-105.933594c-9.75 0-17.65625-7.902344-17.65625-17.652344s7.90625-17.65625 17.65625-17.65625zm0 0" fill="#d75e72"/><path d="m291.308594 0h105.933594c9.75 0 17.65625 7.90625 17.65625 17.65625s-7.90625 17.652344-17.65625 17.652344h-105.933594c-9.75 0-17.652344-7.902344-17.652344-17.652344s7.902344-17.65625 17.652344-17.65625zm0 0" fill="#d75e72"/><path d="m397.242188 406.070312h-105.933594c-9.75 0-17.652344-7.90625-17.652344-17.65625s7.902344-17.65625 17.652344-17.65625h105.933594c9.75 0 17.65625 7.90625 17.65625 17.65625s-7.90625 17.65625-17.65625 17.65625zm0 0" fill="#d75e72"/><path d="m220.691406 406.070312h-105.933594c-9.75 0-17.65625-7.90625-17.65625-17.65625s7.90625-17.65625 17.65625-17.65625h105.933594c9.75 0 17.652344 7.90625 17.652344 17.65625s-7.902344 17.65625-17.652344 17.65625zm0 0" fill="#d75e72"/><path d="m0 256v-105.929688c0-9.753906 7.90625-17.65625 17.65625-17.65625s17.652344 7.902344 17.652344 17.65625v105.929688c0 9.75-7.902344 17.65625-17.652344 17.65625s-17.65625-7.90625-17.65625-17.65625zm0 0" fill="#d75e72"/><path d="m476.691406 256v-105.929688c0-9.753906 7.902344-17.65625 17.652344-17.65625s17.65625 7.902344 17.65625 17.65625v105.929688c0 9.75-7.90625 17.65625-17.65625 17.65625s-17.652344-7.90625-17.652344-17.65625zm0 0" fill="#d75e72"/><path d="m105.929688 123.585938c-4.875 0-8.828126-3.953126-8.828126-8.828126v-8.828124c0-4.875 3.953126-8.828126 8.828126-8.828126s8.828124 3.953126 8.828124 8.828126v8.828124c0 4.875-3.953124 8.828126-8.828124 8.828126zm0 0" fill="#804537"/><path d="m105.929688 308.964844c-4.875 0-8.828126-3.953125-8.828126-8.828125v-150.066407c0-4.875 3.953126-8.828124 8.828126-8.828124s8.828124 3.953124 8.828124 8.828124v150.066407c0 4.875-3.953124 8.828125-8.828124 8.828125zm0 0" fill="#804537"/></svg>