<svg height="512pt" viewBox="-94 0 512 512.00014" width="512pt" xmlns="http://www.w3.org/2000/svg"><path d="m317.515625 302.019531c.039063-.082031.039063-.1875.070313-.273437 8.90625-29.847656 8.90625-61.644532 0-91.492188-.03125-.082031-.03125-.1875-.070313-.273437-12.332031-41.386719-40.597656-76.175781-78.582031-96.71875v-46.207031c16.636718-4.265626 27.492187-20.253907 25.324218-37.292969-2.167968-17.039063-16.683593-29.7968752-33.859374-29.761719h-136.53125c-17.175782-.0351562-31.691407 12.722656-33.859376 29.761719-2.167968 17.039062 8.6875 33.027343 25.324219 37.292969v46.207031c-37.980469 20.542969-66.25 55.335937-78.582031 96.71875-.035156.085937-.035156.179687-.066406.265625-8.910156 29.851562-8.910156 61.65625 0 91.507812.03125.085938.03125.183594.066406.265625 12.332031 41.382813 40.601562 76.175781 78.582031 96.71875v46.207031c-16.636719 4.269532-27.492187 20.253907-25.324219 37.292969 2.167969 17.039063 16.683594 29.796875 33.859376 29.761719h136.53125c17.175781.035156 31.691406-12.722656 33.859374-29.761719 2.167969-17.039062-8.6875-33.023437-25.324218-37.292969v-46.207031c37.984375-20.542969 66.25-55.332031 78.582031-96.71875zm-300.449219-46.019531c.042969-11.503906 1.460938-22.964844 4.222656-34.132812h281.6875c5.632813 22.40625 5.632813 45.859374 0 68.265624h-281.6875c-2.761718-11.167968-4.179687-22.628906-4.222656-34.132812zm59.734375-221.867188c.011719-9.421874 7.644531-17.054687 17.066407-17.066406h136.53125c9.425781 0 17.066406 7.640625 17.066406 17.066406 0 9.425782-7.640625 17.066407-17.066406 17.066407h-136.53125c-9.421876-.011719-17.054688-7.644531-17.066407-17.066407zm25.597657 34.132813h119.46875v37.148437c-38.335938-15.394531-81.132813-15.394531-119.46875 0zm59.734374 42.667969c60.296876.101562 114.25 37.460937 135.5625 93.867187h-271.121093c21.308593-56.40625 75.265625-93.765625 135.558593-93.867187zm-135.558593 196.265625h271.121093c-21.226562 56.472656-75.234374 93.867187-135.5625 93.867187-60.328124 0-114.335937-37.394531-135.558593-93.867187zm220.890625 170.667969c-.007813 9.421874-7.644532 17.054687-17.066406 17.066406h-136.53125c-9.425782 0-17.066407-7.640625-17.066407-17.066406 0-9.425782 7.640625-17.066407 17.066407-17.066407h136.53125c9.421874.011719 17.058593 7.644531 17.066406 17.066407zm-25.597656-34.132813h-119.46875v-37.148437c38.335937 15.394531 81.132812 15.394531 119.46875 0zm0 0"/></svg>