<svg height="512pt" viewBox="0 0 512 512" width="512pt" xmlns="http://www.w3.org/2000/svg"><g fill="#802d40"><path d="m99.664062 194.207031h-85.714843v132.414063h91.980469zm0 0"/><path d="m194.207031 423.160156v62.355469h132.414063v-66.910156zm0 0"/><path d="m415.53125 317.792969h78.8125v-132.414063h-84.566406zm0 0"/><path d="m317.792969 99.671875v-85.722656h-132.414063v91.980469zm0 0"/></g><path d="m441.378906 256c0 102.382812-82.996094 185.378906-185.378906 185.378906s-185.378906-82.996094-185.378906-185.378906 82.996094-185.378906 185.378906-185.378906 185.378906 82.996094 185.378906 185.378906zm0 0" fill="#cb8252"/><path d="m17.65625 167.722656c9.75 0 17.652344 7.90625 17.652344 17.65625v141.242188c0 9.75-7.902344 17.65625-17.652344 17.65625s-17.65625-7.90625-17.65625-17.65625v-141.242188c0-9.75 7.90625-17.65625 17.65625-17.65625zm0 0" fill="#d75e72"/><path d="m167.722656 494.34375c0-9.75 7.90625-17.652344 17.65625-17.652344h141.242188c9.75 0 17.65625 7.902344 17.65625 17.652344s-7.90625 17.65625-17.65625 17.65625h-141.242188c-9.75 0-17.65625-7.90625-17.65625-17.65625zm0 0" fill="#d75e72"/><path d="m494.34375 344.277344c-9.75 0-17.652344-7.90625-17.652344-17.65625v-141.242188c0-9.75 7.902344-17.65625 17.652344-17.65625s17.65625 7.90625 17.65625 17.65625v141.242188c0 9.75-7.90625 17.65625-17.65625 17.65625zm0 0" fill="#d75e72"/><path d="m344.277344 17.65625c0 9.75-7.90625 17.652344-17.65625 17.652344h-141.242188c-9.75 0-17.65625-7.902344-17.65625-17.652344s7.90625-17.65625 17.65625-17.65625h141.242188c9.75 0 17.65625 7.90625 17.65625 17.65625zm0 0" fill="#d75e72"/></svg>