<svg height="512pt" viewBox="0 -51 512.00015 512" width="512pt" xmlns="http://www.w3.org/2000/svg"><path d="m486.398438 128c-10.8125.035156-20.433594 6.867188-24.027344 17.066406h-18.636719v-51.199218c-.015625-14.132813-11.46875-25.585938-25.601563-25.601563h-17.066406v-18.636719c11.75-4.132812 18.808594-16.144531 16.695313-28.417968-2.109375-12.277344-12.769531-21.242188-25.226563-21.210938h-102.402344c-12.457031-.03125-23.117187 8.933594-25.226562 21.210938-2.113281 12.273437 4.941406 24.285156 16.695312 28.417968v18.636719h-51.203124v-18.636719c11.753906-4.132812 18.808593-16.144531 16.695312-28.417968-2.109375-12.277344-12.769531-21.242188-25.226562-21.210938h-102.402344c-12.453125-.03125-23.117188 8.933594-25.226563 21.210938-2.109375 12.273437 4.945313 24.285156 16.695313 28.417968v18.636719h-17.066406c-14.132813.015625-25.585938 11.46875-25.601563 25.601563v51.199218h-18.636719c-4.132812-11.75-16.144531-18.804687-28.417968-16.695312-12.277344 2.113281-21.242188 12.773437-21.210938 25.230468v102.398438c-.03125 12.457031 8.933594 23.117188 21.210938 25.230469 12.273437 2.109375 24.285156-4.945313 28.417968-16.695313h18.636719v51.199219c.015625 14.132813 11.46875 25.582031 25.601563 25.597656h17.066406v18.640625c-11.75 4.132813-18.804688 16.140625-16.695313 28.417969s12.773438 21.238281 25.226563 21.210937h102.402344c12.457031.027344 23.117187-8.933593 25.226562-21.210937 2.113281-12.277344-4.941406-24.285156-16.695312-28.417969v-18.640625h51.203124v18.640625c-11.753906 4.132813-18.808593 16.140625-16.695312 28.417969 2.109375 12.277344 12.769531 21.238281 25.226562 21.210937h102.402344c12.457032.027344 23.117188-8.933593 25.226563-21.210937 2.113281-12.277344-4.945313-24.285156-16.695313-28.417969v-18.640625h17.066406c14.132813-.015625 25.585938-11.464843 25.601563-25.597656v-51.199219h18.636719c4.132812 11.75 16.144531 18.804688 28.417968 16.695313 12.277344-2.113281 21.242188-12.773438 21.210938-25.230469v-102.398438c-.015625-14.132812-11.46875-25.585937-25.601562-25.601562zm-196.265626-110.933594h102.402344c4.710938 0 8.53125 3.820313 8.53125 8.535156 0 4.710938-3.820312 8.53125-8.53125 8.53125h-102.402344c-4.710937 0-8.53125-3.820312-8.53125-8.53125 0-4.714843 3.820313-8.535156 8.53125-8.535156zm8.535157 34.132813h85.332031v17.066406h-85.332031zm-179.203125-34.132813h102.402344c4.710937 0 8.53125 3.820313 8.53125 8.535156 0 4.710938-3.820313 8.53125-8.53125 8.53125h-102.402344c-4.710938 0-8.53125-3.820312-8.53125-8.53125 0-4.714843 3.820312-8.535156 8.53125-8.535156zm8.535156 34.132813h85.332031v17.066406h-85.332031zm-102.398438 213.335937c-4.710937-.007812-8.527343-3.824218-8.535156-8.535156v-102.398438c0-4.714843 3.820313-8.535156 8.535156-8.535156 4.710938 0 8.53125 3.820313 8.53125 8.535156v102.398438c-.003906 4.710938-3.824218 8.527344-8.53125 8.535156zm25.597657-17.066406v-85.335938h17.066406v85.335938zm170.667969 145.066406h-102.402344c-4.710938 0-8.53125-3.820312-8.53125-8.535156 0-4.710938 3.820312-8.53125 8.53125-8.53125h102.402344c4.710937 0 8.53125 3.820312 8.53125 8.53125 0 4.714844-3.820313 8.535156-8.53125 8.535156zm-8.535157-34.136718h-85.332031v-17.066407h85.332031zm179.203125 34.136718h-102.402344c-4.710937 0-8.53125-3.820312-8.53125-8.535156 0-4.710938 3.820313-8.53125 8.53125-8.53125h102.402344c4.710938 0 8.53125 3.820312 8.53125 8.53125 0 4.714844-3.820312 8.535156-8.53125 8.535156zm-8.535156-34.136718h-85.332031v-17.066407h85.332031zm42.667969-42.664063c-.007813 4.710937-3.824219 8.527344-8.535157 8.53125h-324.265624c-4.710938-.003906-8.527344-3.820313-8.535157-8.53125v-221.867187c.007813-4.710938 3.824219-8.527344 8.535157-8.535157h324.265624c4.710938.007813 8.527344 3.824219 8.535157 8.535157zm17.066406-153.601563h17.066406v85.335938h-17.066406zm51.199219 93.867188c0 4.714844-3.820313 8.535156-8.535156 8.535156-4.710938 0-8.53125-3.820312-8.53125-8.535156v-102.398438c0-4.714843 3.820312-8.535156 8.53125-8.535156 4.714843 0 8.535156 3.820313 8.535156 8.535156zm0 0"/><path d="m110.933594 102.398438c-4.714844 0-8.535156 3.820312-8.535156 8.535156v8.535156c0 4.710938 3.820312 8.53125 8.535156 8.53125 4.710937 0 8.53125-3.820312 8.53125-8.53125v-8.535156c0-4.714844-3.820313-8.535156-8.53125-8.535156zm0 0"/><path d="m110.933594 145.066406c-4.714844 0-8.535156 3.820313-8.535156 8.535156v145.066407c0 4.710937 3.820312 8.53125 8.535156 8.53125 4.710937 0 8.53125-3.820313 8.53125-8.53125v-145.066407c0-4.714843-3.820313-8.535156-8.53125-8.535156zm0 0"/></svg>